<?xml version="1.0" encoding="UTF-8"?>
<!-- Created with Inkscape (http://www.inkscape.org/) -->
<svg width="144.59mm" height="278.05mm" version="1.1" viewBox="0 0 144.59 278.05" xmlns="http://www.w3.org/2000/svg">
 <g transform="rotate(-90 31.338 -113.85)" stroke-width="15">
  <path d="m-321.21-10.179c-23.485 6.0661-30.453-21.351-31.798-45.21-1.2695-22.523 22.579-76.873 65.711-75.54 43.132 1.3329 74.468 22.951 101.74 22.279 27.596-0.68004 45.973-12.35 56.885-22.251 7.2626-6.5904 15.51-10.893 26.266-0.87046 10.247 9.548 17.42 23.89 8.0098 52.555-5.0431 15.363-29.849 64.116-87.201 58.457-56.718-5.5957-50.835-15.705-73.902-16.022-17.309-0.23818-25.508 2.1242-40.552 11.921-6.6255 4.3145-13.431 12.151-25.159 14.683z" fill="none" stroke="#000" stroke-width="15"/>
 </g>
</svg>
