<?xml version="1.0" encoding="UTF-8" standalone="no"?>
<!-- Created with Inkscape (http://www.inkscape.org/) -->

<svg
   width="100mm"
   height="100mm"
   viewBox="0 0 100 99.999999"
   version="1.1"
   id="svg1620"
   inkscape:version="1.1.2 (0a00cf5339, 2022-02-04)"
   sodipodi:docname="iconOfficial.svg"
   xmlns:inkscape="http://www.inkscape.org/namespaces/inkscape"
   xmlns:sodipodi="http://sodipodi.sourceforge.net/DTD/sodipodi-0.dtd"
   xmlns="http://www.w3.org/2000/svg"
   xmlns:svg="http://www.w3.org/2000/svg">
  <sodipodi:namedview
     id="namedview1622"
     pagecolor="#ffffff"
     bordercolor="#111111"
     borderopacity="1"
     inkscape:pageshadow="0"
     inkscape:pageopacity="0"
     inkscape:pagecheckerboard="1"
     inkscape:document-units="mm"
     showgrid="false"
     inkscape:zoom="1.21"
     inkscape:cx="251.23967"
     inkscape:cy="111.98347"
     inkscape:window-width="1846"
     inkscape:window-height="1016"
     inkscape:window-x="74"
     inkscape:window-y="27"
     inkscape:window-maximized="1"
     inkscape:current-layer="layer2"
     fit-margin-top="0"
     fit-margin-left="0"
     fit-margin-right="0"
     fit-margin-bottom="0" />
  <defs
     id="defs1617" />
  <g
     inkscape:label="Layer 1"
     inkscape:groupmode="layer"
     id="layer1"
     style="display:none">
    <g
       transform="matrix(0.41895144,0.00217445,0.00217445,0.41141893,173.15773,200.5213)"
       id="g15238"
       style="fill:#676565;fill-opacity:1;stroke:#01ca00;stroke-width:9.67332;stroke-miterlimit:4;stroke-dasharray:none;stroke-opacity:1">
      <path
         d="m -321.21,-10.179 c -23.485,6.0661 -32.81788,-26.599892 -31.798,-45.21 1.83207,-33.43039 22.579,-76.873 65.711,-75.54 43.132,1.3329 74.468,22.951 101.74,22.279 27.596,-0.68004 45.973,-12.35 56.885,-22.251 7.2626,-6.5904 15.51,-10.893 26.266,-0.87046 10.247,9.548 17.42,23.89 8.0098,52.555 -5.0431,15.363 -29.849,64.116 -87.201,58.457 -56.718,-5.5957 -50.835,-15.705 -73.902,-16.022 -17.309,-0.23818 -25.508,2.1242 -40.552,11.921 -6.6255,4.3145 -13.431,12.151 -25.159,14.683 z"
         fill="none"
         stroke="#000000"
         stroke-width="1.5389"
         id="path15236"
         style="fill:#676565;fill-opacity:1;stroke:#01ca00;stroke-width:9.67332;stroke-miterlimit:4;stroke-dasharray:none;stroke-opacity:1"
         sodipodi:nodetypes="cacccccccccc" />
    </g>
    <g
       transform="matrix(0.53954294,0.00280034,0.00280034,0.52984227,203.70809,195.93023)"
       id="g15234"
       style="fill:#404040;fill-opacity:1;stroke:#800080;stroke-width:7.6291;stroke-miterlimit:4;stroke-dasharray:none;stroke-opacity:1">
      <path
         d="m -321.21,-10.179 c -23.485,6.0661 -32.81788,-26.599892 -31.798,-45.21 1.83207,-33.43039 22.579,-76.873 65.711,-75.54 43.132,1.3329 74.468,22.951 101.74,22.279 27.596,-0.68004 45.973,-12.35 56.885,-22.251 7.2626,-6.5904 15.51,-10.893 26.266,-0.87046 10.247,9.548 17.42,23.89 8.0098,52.555 -5.0431,15.363 -29.849,64.116 -87.201,58.457 -56.718,-5.5957 -50.835,-15.705 -73.902,-16.022 -17.309,-0.23818 -25.508,2.1242 -40.552,11.921 -6.6255,4.3145 -13.431,12.151 -25.159,14.683 z"
         fill="none"
         stroke="#000000"
         stroke-width="1.5389"
         id="path15232"
         style="fill:#404040;fill-opacity:1;stroke:#800080;stroke-width:7.6291;stroke-miterlimit:4;stroke-dasharray:none;stroke-opacity:1"
         sodipodi:nodetypes="cacccccccccc" />
    </g>
    <g
       transform="matrix(0.64146898,0.00332936,0.00332936,0.62993574,227.1156,190.27128)"
       id="g2433"
       style="fill:#262626;fill-opacity:1;stroke:#b20000;stroke-width:7.86889;stroke-miterlimit:4;stroke-dasharray:none;stroke-opacity:1">
      <path
         d="m -321.21,-10.179 c -13.057,4.1280517 -24.12172,-7.632959 -27.66041,-19.108903 -9.1768,-25.124839 -2.02648,-53.733794 12.23237,-75.500517 11.36515,-17.54983 32.35929,-28.45523 53.35034,-25.95749 28.99582,1.15308 55.40731,14.24766 83.26915,20.68316 26.54386,5.173 54.79679,-4.62221 74.11916,-23.1789 8.4441,-8.39749 21.16398,-3.31459 27.165536,5.29402 13.10815,14.98941 9.266985,36.927702 2.38766,53.860068 -12.012176,28.675937 -39.121396,52.48391 -71.177916,53.637249 -18.97697,0.338102 -38.02776,-2.733788 -56.29893,-7.754072 -11.36214,-3.746876 -22.41669,-9.839479 -34.81873,-8.590078 -17.52876,-0.939646 -33.60755,7.884935 -46.6059,18.88005 -4.75015,3.577961 -10.09778,6.517089 -15.96233,7.735413 z"
         fill="none"
         stroke="#000000"
         stroke-width="1.5389"
         id="path2431"
         style="fill:#262626;fill-opacity:1;stroke:#b20000;stroke-width:7.86889;stroke-miterlimit:4;stroke-dasharray:none;stroke-opacity:1"
         sodipodi:nodetypes="cacccccccccc" />
    </g>
  </g>
  <g
     inkscape:groupmode="layer"
     id="layer2"
     inkscape:label="Layer 2"
     style="display:inline">
    <g
       transform="matrix(1.2208954,0,0,1.2208954,-270.87783,-277.95786)"
       filter="url(#filter5185)"
       id="g1132"
       style="display:inline">
      <path
         d="m 253.12,252.72 c -1.2787,-1.2848 -3.0236,-2.3723 -3.8208,-2.3814 -0.20333,-0.002 0.0744,-0.18688 0.61711,-0.41016 0.54274,-0.22327 1.2698,-0.62184 1.6158,-0.88571 1.5868,-1.2103 2.7154,-4.0645 2.078,-5.2554 -0.13882,-0.25939 -0.12559,-0.3421 0.0548,-0.3421 0.46162,0 3.141,0.73607 4.2363,1.1638 1.008,0.39362 3.3218,1.8007 3.3189,2.0183 -6.7e-4,0.0494 -0.29685,0.28881 -0.65818,0.53199 -1.2395,0.8342 -4.0112,3.7998 -5.0002,5.3499 -0.535,0.83858 -1.0125,1.5212 -1.0612,1.5169 -0.0486,-0.004 -0.66989,-0.59203 -1.3806,-1.3061 z"
         fill="#ffffff"
         fill-opacity="0.99609"
         stroke="#fffefe"
         stroke-linecap="round"
         stroke-width="0.27192"
         style="paint-order:normal"
         id="path1096" />
      <g
         fill="none"
         stroke="#000000"
         stroke-width="2"
         id="g1116">
        <g
           stroke-linecap="round"
           id="g1108">
          <path
             d="m 267.8,249.8 c 0,0 7.5321,-3.2279 9.7354,-1.5909 2.2033,1.637 1.5372,9.1304 1.5372,9.1304"
             id="path1098" />
          <path
             d="m 293.87,275.39 c 2.439,0.16689 8.2261,1.6168 8.8196,-0.1888 0.65046,-3.1336 -3.1328,-9.5571 -6.1234,-10.963"
             id="path1100" />
          <path
             d="m 247.61,241.94 c 0,0 10.896,-0.56153 15.185,4.7222 m -16.486,33.01 c 0,0 5.0563,4.7396 11.72,4.9367 6.6947,0.19801 12.025,-0.34876 12.355,2.9536 0.19962,1.9973 -0.99953,3.975 -5.8825,5.9924 -4.3365,1.7917 -15.206,3.9564 -28.773,-3.2499 -25.028,-18.529 -9.4691,-48.342 11.882,-48.365"
             id="path1102" />
          <path
             d="m 245.53,251.03 c 0,0 3.3394,-0.34946 5.5915,1.3629 2.2521,1.71236 3.5236,3.8284 3.5236,3.8284"
             id="path1104" />
          <path
             d="m 259.82,284.32 c 0,0 -13.439,-11.203 -5.1748,-28.096 8.2642,-16.893 27.361,-12.127 29.401,-11.053 2.04,1.074 12.242,3.9444 12.521,19.062"
             id="path1106" />
        </g>
        <path
           d="m 295.83,275.7 c 0,0 -3.2802,10.048 -11.678,13.086 -8.3973,3.038 -13.658,0.30057 -13.658,0.30057"
           id="path1110" />
        <path
           d="m 264.52,275.56 c 0,0 0.0835,1.0842 0.84689,2.3939 0.76339,1.3096 1.2751,1.604 1.2751,1.604"
           stroke-linecap="round"
           id="path1112" />
        <path
           d="m 275.34,285.66 c 0,0 0.65167,0.3951 1.5983,0.51857 0.94663,0.12347 1.5572,-0.006 1.5572,-0.006"
           stroke-linecap="round"
           id="path1114" />
      </g>
      <g
         stroke-linecap="round"
         id="g1126">
        <path
           d="m 228.69,266.92 c -2.0038,-0.15205 -3.7149,-0.6753 -4.6545,-1.4233 l -0.0842,-0.067 0.0419,-0.40938 c 0.62332,-6.0974 3.7198,-12.001 8.4964,-16.198 3.7117,-3.2613 8.2309,-5.2625 12.994,-5.754 0.92389,-0.0953 3.082,-0.14498 4.2118,-0.0969 1.3336,0.0567 3.2826,0.24422 3.4455,0.33142 0.17874,0.0957 0.4301,0.54089 0.51975,0.92066 0.0803,0.34013 0.0478,0.986 -0.0726,1.4428 -0.59563,2.2601 -2.2358,3.9009 -4.4769,4.4788 -0.38564,0.0994 -0.41361,0.10187 -0.63546,0.0554 -0.68191,-0.14286 -1.0865,-0.17661 -2.1319,-0.1778 -1.0108,-10e-4 -1.0446,0.001 -1.2226,0.0817 -0.3776,0.17092 -0.59814,0.52032 -0.59814,0.94764 0,0.39134 0.18236,0.68221 0.56993,0.90904 0.0644,0.0377 0.0679,0.0988 0.0679,1.1829 0,1.2036 -0.0257,1.5418 -0.1837,2.4157 -0.25811,1.4277 -0.68831,2.5476 -1.5312,3.9861 -0.84662,1.4448 -1.5652,2.3965 -2.5674,3.4002 -0.91423,0.91569 -1.664,1.4817 -2.748,2.0744 -1.8288,0.99996 -4.4285,1.7146 -6.9135,1.9003 -0.56806,0.0425 -1.9619,0.0419 -2.5271,-9.7e-4 z"
           fill="#ff5555"
           stroke="#fa5353"
           stroke-width="0.16042"
           id="path1118"
           style="fill:#ff3333;fill-opacity:1;stroke:#ff3333;stroke-opacity:1" />
        <path
           d="m 266.96,264.69 c -1.7608,-0.0672 -4.0164,-0.34445 -5.5373,-0.68053 -2.1458,-0.47419 -3.9969,-1.3264 -5.5578,-2.5588 -0.43541,-0.34375 -1.5429,-1.4418 -1.5836,-1.5701 -0.0303,-0.0956 0.32029,-1.0538 0.73984,-2.0216 3.1404,-7.2446 8.5827,-11.57 16.08,-12.781 1.4006,-0.22618 2.53,-0.31052 4.161,-0.31074 2.1544,-3e-4 3.9782,0.18507 5.919,0.60161 1.1063,0.23743 1.8528,0.47073 2.6208,0.81903 0.38263,0.17353 0.98284,0.44524 1.3338,0.60379 0.76729,0.34664 1.4048,0.67841 2.1094,1.0977 l 0.52445,0.3121 0.0818,0.24861 c 0.24007,0.7294 0.37082,1.5098 0.40076,2.3921 0.0749,2.2066 -0.59883,4.223 -2.1315,6.3795 -1.8106,2.5476 -4.45,4.3301 -8.7042,5.8781 -2.2418,0.81575 -4.2334,1.2691 -6.5459,1.4899 -0.63043,0.0602 -2.5143,0.14932 -2.9024,0.13729 -0.1019,-0.003 -0.55579,-0.0199 -1.0086,-0.0372 z m 12.463,-6.4014 c 0.22976,-0.0783 0.46896,-0.30201 0.57202,-0.53499 0.1145,-0.25883 0.16956,-1.1754 0.17052,-2.8382 10e-4,-1.838 -0.0854,-2.9486 -0.32306,-4.1512 -0.45537,-2.3039 -1.3133,-3.4908 -2.8077,-3.8847 -0.3392,-0.0894 -0.51818,-0.1086 -1.1722,-0.12582 -1.3545,-0.0357 -2.6468,0.17012 -4.5768,0.72875 -1.4724,0.42618 -3.8477,1.2939 -4.1287,1.5082 -0.0736,0.0561 -0.18515,0.18942 -0.24792,0.29621 -0.0977,0.16611 -0.11402,0.23876 -0.11332,0.50292 8.8e-4,0.33281 0.0616,0.49877 0.26119,0.71394 0.19231,0.20732 0.40508,0.29246 0.72606,0.29054 0.26071,-0.002 0.36275,-0.0315 1.0704,-0.31396 2.7871,-1.1126 5.5414,-1.7839 6.9988,-1.7059 0.92577,0.0496 1.1742,0.19735 1.5335,0.91242 0.59242,1.1788 0.87251,3.9297 0.70534,6.9276 -0.057,1.0219 -0.0376,1.1244 0.27016,1.4316 0.30048,0.29984 0.65553,0.38094 1.0618,0.24253 z"
           fill="#ffaaaa"
           stroke="#ffaaaa"
           stroke-width="0.24064"
           id="path1120"
           style="fill:#99ff99;fill-opacity:1;stroke:#a8ffa8;stroke-width:0.240637;stroke-miterlimit:4;stroke-dasharray:none;stroke-opacity:1" />
        <path
           d="m 285,286.99 c 0.19035,-2.7074 0.56721,-4.9023 1.2126,-7.0618 0.57637,-1.9287 1.7856,-4.7638 3.4562,-8.1031 2.129,-4.2557 4.0732,-7.358 5.4757,-8.7374 l 0.34605,-0.34036 0.0241,0.39798 c 0.0133,0.21889 0.0262,0.58069 0.0288,0.804 0.008,0.68849 0.15548,0.97736 0.62606,1.2261 0.31285,0.16537 0.6491,0.38953 0.91533,0.61018 2.0005,1.6581 4.0017,5.0014 4.556,7.6117 0.0484,0.22792 0.0699,0.50006 0.0713,0.90101 l 0.002,0.57445 -0.22842,0.0698 c -0.38785,0.11846 -1.0817,0.15946 -1.8623,0.11005 -0.88655,-0.0561 -1.3582,-0.11101 -3.3261,-0.38703 -2.4975,-0.35031 -2.587,-0.35449 -2.9556,-0.13844 -0.32908,0.19286 -0.50828,0.5499 -0.47274,0.94189 0.0255,0.28119 0.13418,0.49195 0.353,0.68456 0.19881,0.175 0.36207,0.22849 0.83938,0.275 0.18588,0.0181 0.34714,0.0421 0.35836,0.0533 0.0337,0.0337 -0.57675,1.3428 -0.96628,2.0723 -2.182,4.0865 -4.9683,7.0278 -8.1957,8.6516 l -0.28281,0.14228 z"
           fill="#ff0000"
           stroke="#ff0000"
           stroke-width="0.16042"
           id="path1122"
           style="fill:#00cc00;fill-opacity:1;stroke:#00cc00;stroke-opacity:1" />
        <path
           d="m 241.37,291.75 c -1.5101,-0.58358 -3.4986,-1.4768 -4.6145,-2.0727 -1.0313,-0.55079 -2.9526,-2.1457 -4.7433,-3.9377 -1.9269,-1.9282 -3.4241,-3.8376 -4.7138,-6.0117 -0.7327,-1.2351 -1.5722,-3.0243 -2.0279,-4.3219 -0.21409,-0.60962 -0.20914,-0.66957 0.0859,-1.0408 0.35855,-0.45118 0.89652,-0.68257 2.018,-0.86799 1.0728,-0.17737 1.8396,-0.22434 3.1835,-0.19502 3.2407,0.0707 5.0918,0.73867 7.1071,2.5646 1.6364,1.4827 3.3336,4.3283 4.0027,6.7112 0.71441,2.5442 0.90654,6.0776 0.48265,8.8762 -0.0454,0.29981 -0.097,0.54414 -0.11456,0.54296 -0.0176,-10e-4 -0.31722,-0.11237 -0.66584,-0.2471 z"
           fill="#ff2a2a"
           stroke="#ff2a2a"
           stroke-width="0.16042"
           id="path1124"
           style="fill:#cc00cc;fill-opacity:1;stroke:#cc00cc;stroke-width:0.160425;stroke-miterlimit:4;stroke-dasharray:none;stroke-opacity:1" />
      </g>
      <path
         d="m 250.08,293.92 c -2.1049,-0.2839 -4.8052,-0.90863 -6.6323,-1.5344 l -1.238,-0.42403 0.0884,-0.86703 c 0.16224,-1.5907 0.0681,-5.4492 -0.16571,-6.7918 -0.72037,-4.1368 -3.3944,-8.3143 -6.3097,-9.8574 -1.6564,-0.87675 -3.0083,-1.159 -5.6395,-1.1775 -2.5796,-0.0181 -3.9029,0.23299 -4.6818,0.88834 l -0.50486,0.42481 -0.36308,-1.5503 c -0.67365,-2.8764 -0.95928,-7.291 -0.46356,-7.1648 0.0973,0.0248 0.77376,0.25757 1.5033,0.51736 1.1193,0.39857 1.6995,0.48427 3.7147,0.54866 3.6197,0.11566 6.8223,-0.62139 9.3306,-2.1474 1.1957,-0.72741 3.1409,-2.6431 4.036,-3.9748 1.6332,-2.4298 2.3109,-4.3536 2.4948,-7.0827 l 0.1118,-1.6591 1.4309,0.0931 c 2.2606,0.14715 3.2448,0.61241 4.9924,2.3601 0.81343,0.81343 1.479,1.5915 1.479,1.729 0,0.1375 -0.2799,0.97482 -0.622,1.8606 -1.1351,2.9391 -1.5239,4.8904 -1.6279,8.1694 -0.0715,2.2552 -0.026,3.3289 0.19637,4.6336 0.69404,4.0717 2.5748,8.1512 5.296,11.488 0.97791,1.199 0.91782,1.2274 -1.4134,0.66853 -2.417,-0.57949 -5.0305,-1.8756 -7.2943,-3.6176 -1.5084,-1.1607 -2.4934,-1.0849 -2.4934,0.19195 0,0.36767 0.14425,0.71443 0.39793,0.95655 0.81104,0.77408 2.9212,2.1667 4.4657,2.9471 3.3752,1.7054 5.4364,2.1055 11.584,2.2486 4.2618,0.0992 5.9509,0.31506 6.7957,0.86863 1.6099,1.0549 0.60534,3.19 -2.253,4.7885 -4.2356,2.3687 -10.206,3.2768 -16.215,2.4662 z"
         fill="#ffffff"
         fill-opacity="0.99866"
         stroke="#fffefe"
         stroke-linecap="round"
         stroke-width="0.33769"
         style="paint-order:normal"
         id="path1128" />
      <path
         d="m 273.67,288.91 c -2.0844,-0.44293 -2.191,-0.49969 -2.191,-1.1666 0,-0.33983 -0.12318,-0.91268 -0.27373,-1.273 -0.81591,-1.9528 -2.6441,-2.6283 -7.5966,-2.807 -3.4612,-0.12488 -3.1196,0.0327 -5.1228,-2.3629 -4.72,-5.6448 -6.442,-12.566 -4.7828,-19.225 l 0.49373,-1.9815 1.0803,0.96553 c 2.8128,2.514 6.8365,3.664 12.842,3.6702 3.4778,0.004 5.5429,-0.30969 8.5072,-1.2905 5.9882,-1.9814 9.6526,-4.9857 11.168,-9.156 0.43615,-1.2006 0.62264,-4.0336 0.33428,-5.078 -0.1051,-0.38062 -0.17197,-0.71115 -0.14862,-0.7345 0.1331,-0.1331 2.4819,1.9856 3.359,3.03 1.1505,1.3698 2.5805,4.067 3.1189,5.8824 0.39199,1.3218 0.8982,4.0518 0.8982,4.844 0,0.3469 -0.22001,0.75185 -0.68406,1.2591 -1.505,1.645 -3.4704,4.962 -5.7748,9.7462 -2.441,5.0678 -3.3871,8.051 -3.8107,12.016 l -0.21631,2.0245 -0.62059,0.29594 c -0.34132,0.16276 -1.5435,0.54038 -2.6716,0.83915 -1.7466,0.4626 -2.4315,0.55163 -4.6154,0.6 -1.4105,0.0312 -2.8917,-0.0127 -3.2917,-0.0977 z m 5.5909,-1.9499 c 0.80214,-0.80215 0.0472,-2.017 -1.1343,-1.8253 -0.32317,0.0524 -1.0282,-0.0327 -1.5667,-0.18929 -1.7131,-0.498 -2.2511,-0.33164 -2.2511,0.69606 0,1.0364 1.2117,1.6094 3.493,1.6517 0.88729,0.0165 1.1752,-0.0493 1.4591,-0.3332 z m -11.771,-6.76 c 0.40927,-0.58432 0.33998,-0.94873 -0.32032,-1.6845 -0.69521,-0.77469 -1.2308,-1.7757 -1.5152,-2.8317 -0.2537,-0.94218 -0.82462,-1.3663 -1.4957,-1.1112 -0.92632,0.35218 -0.90215,1.62 0.0675,3.5409 0.79778,1.5804 1.6681,2.4796 2.4,2.4796 0.40755,0 0.67303,-0.12082 0.86373,-0.39308 z"
         fill="#ffffff"
         stroke="#ffffff"
         stroke-linecap="round"
         stroke-width="0.43234"
         style="paint-order:normal"
         id="path1130" />
    </g>
  </g>
</svg>
