<?xml version="1.0" encoding="UTF-8"?>
<!-- Created with Inkscape (http://www.inkscape.org/) -->
<svg width="11.71mm" height="13.229mm" version="1.1" viewBox="0 0 11.71 13.229" xmlns="http://www.w3.org/2000/svg">
 <g transform="translate(-16.866 -29.983)" fill="none" stroke="#000" stroke-linecap="round" stroke-linejoin="round">
  <path d="m23.223 30.303c-0.14811 2e-3 -0.29825 0.03632-0.44023 0.10688l-5.0325 2.5012c-0.50483 0.25089-0.70964 0.85926-0.45875 1.3641l3.2314 6.5014v-8.52c0-0.56373 0.45377-1.0175 1.0175-1.0175h2.7906l-0.18414-0.37092c-0.18033-0.36284-0.54535-0.57015-0.92385-0.5651zm4.9547 8.6819v0.78099c0.10094-0.24237 0.10762-0.5224 0-0.78099zm-6.9358 3.2377 0.05238 0.10582c0.25089 0.50483 0.85926 0.70911 1.3641 0.45822l1.0445-0.51907h-2.1625c-0.104 0-0.20406-0.01624-0.29843-0.04498z" stroke-width=".63995" style="paint-order:stroke fill markers"/>
  <rect x="20.523" y="31.239" width="7.6547" height="11.028" ry="1.0176" stroke-width=".63995" style="paint-order:stroke fill markers"/>
 </g>
</svg>
