<?xml version="1.0" encoding="UTF-8" standalone="no"?>
<!-- Created with Inkscape (http://www.inkscape.org/) -->

<svg
   width="94.202705mm"
   height="52.916668mm"
   viewBox="0 0 94.202705 52.916668"
   version="1.1"
   id="svg1355"
   inkscape:version="1.1.2 (0a00cf5339, 2022-02-04)"
   sodipodi:docname="catsCornerOrig.svg"
   xmlns:inkscape="http://www.inkscape.org/namespaces/inkscape"
   xmlns:sodipodi="http://sodipodi.sourceforge.net/DTD/sodipodi-0.dtd"
   xmlns="http://www.w3.org/2000/svg"
   xmlns:svg="http://www.w3.org/2000/svg">
  <sodipodi:namedview
     id="namedview1357"
     pagecolor="#ffffff"
     bordercolor="#111111"
     borderopacity="1"
     inkscape:pageshadow="0"
     inkscape:pageopacity="0"
     inkscape:pagecheckerboard="1"
     inkscape:document-units="mm"
     showgrid="false"
     fit-margin-top="0"
     fit-margin-left="0"
     fit-margin-right="0"
     fit-margin-bottom="0"
     inkscape:zoom="3.2469548"
     inkscape:cx="125.96418"
     inkscape:cy="91.316331"
     inkscape:window-width="1846"
     inkscape:window-height="1016"
     inkscape:window-x="74"
     inkscape:window-y="27"
     inkscape:window-maximized="1"
     inkscape:current-layer="layer1" />
  <defs
     id="defs1352">
    <filter
       style="color-interpolation-filters:sRGB"
       inkscape:label="Drop Shadow"
       id="filter4164"
       x="-0.09281382"
       y="-0.11573761"
       width="1.2188729"
       height="1.2727911">
      <feFlood
         flood-opacity="0.34902"
         flood-color="rgb(0,0,0)"
         result="flood"
         id="feFlood4154" />
      <feComposite
         in="flood"
         in2="SourceGraphic"
         operator="out"
         result="composite1"
         id="feComposite4156" />
      <feGaussianBlur
         in="composite1"
         stdDeviation="2.5"
         result="blur"
         id="feGaussianBlur4158" />
      <feOffset
         dx="2.5"
         dy="2.5"
         result="offset"
         id="feOffset4160" />
      <feComposite
         in="offset"
         in2="SourceGraphic"
         operator="atop"
         result="composite2"
         id="feComposite4162" />
    </filter>
    <filter
       style="color-interpolation-filters:sRGB"
       inkscape:label="Drop Shadow"
       id="filter4164-3"
       x="-0.092813823"
       y="-0.11573761"
       width="1.2188729"
       height="1.2727912">
      <feFlood
         flood-opacity="0.34902"
         flood-color="rgb(0,0,0)"
         result="flood"
         id="feFlood4154-6" />
      <feComposite
         in="flood"
         in2="SourceGraphic"
         operator="out"
         result="composite1"
         id="feComposite4156-7" />
      <feGaussianBlur
         in="composite1"
         stdDeviation="2.5"
         result="blur"
         id="feGaussianBlur4158-5" />
      <feOffset
         dx="2.5"
         dy="2.5"
         result="offset"
         id="feOffset4160-3" />
      <feComposite
         in="offset"
         in2="SourceGraphic"
         operator="atop"
         result="composite2"
         id="feComposite4162-5" />
    </filter>
    <filter
       style="color-interpolation-filters:sRGB;"
       inkscape:label="Drop Shadow"
       id="filter23527"
       x="-0.1441349"
       y="-0.10754909"
       width="1.3136537"
       height="1.2832067">
      <feFlood
         flood-opacity="0.34902"
         flood-color="rgb(0,0,0)"
         result="flood"
         id="feFlood23517" />
      <feComposite
         in="flood"
         in2="SourceGraphic"
         operator="out"
         result="composite1"
         id="feComposite23519" />
      <feGaussianBlur
         in="composite1"
         stdDeviation="2"
         result="blur"
         id="feGaussianBlur23521" />
      <feOffset
         dx="1"
         dy="3.5"
         result="offset"
         id="feOffset23523" />
      <feComposite
         in="offset"
         in2="SourceGraphic"
         operator="atop"
         result="composite2"
         id="feComposite23525" />
    </filter>
    <filter
       style="color-interpolation-filters:sRGB;"
       inkscape:label="Drop Shadow"
       id="filter23557"
       x="-0.076910704"
       y="-0.095901239"
       width="1.1671878"
       height="1.2496488">
      <feFlood
         flood-opacity="0.34902"
         flood-color="rgb(0,0,0)"
         result="flood"
         id="feFlood23547" />
      <feComposite
         in="flood"
         in2="SourceGraphic"
         operator="out"
         result="composite1"
         id="feComposite23549" />
      <feGaussianBlur
         in="composite1"
         stdDeviation="2"
         result="blur"
         id="feGaussianBlur23551" />
      <feOffset
         dx="1"
         dy="3.5"
         result="offset"
         id="feOffset23553" />
      <feComposite
         in="offset"
         in2="SourceGraphic"
         operator="atop"
         result="composite2"
         id="feComposite23555" />
    </filter>
  </defs>
  <g
     inkscape:label="Layer 1"
     inkscape:groupmode="layer"
     id="layer1"
     transform="translate(-0.57192887,-0.905816)"
     style="display:inline">
    <g
       id="g125569"
       transform="matrix(0.68303925,0,0,0.68303925,-42.153323,-81.032451)"
       style="display:inline;filter:url(#filter23557)">
      <g
         id="g122872">
        <ellipse
           style="fill:#ffffff;fill-opacity:1;stroke:#fffffd;stroke-width:0.1;stroke-linecap:round;stroke-miterlimit:4;stroke-dasharray:none;stroke-opacity:1"
           id="path121935"
           cx="147.82376"
           cy="165.56343"
           rx="8.9862003"
           ry="6.2010632" />
        <g
           id="g118646"
           transform="translate(233.1865,76.246898)">
          <path
             style="fill:#aa4400;fill-opacity:1;stroke:none;stroke-width:0.0619164;stroke-linecap:round;stroke-miterlimit:4;stroke-dasharray:none;stroke-opacity:1"
             d="m -88.67405,72.86818 c -1.46893,-0.50036 -2.26253,-1.72634 -2.49098,-3.84815 -0.0808,-0.75083 -0.0441,-1.37587 0.134,-2.27847 0.0824,-0.41774 0.15995,-0.65115 0.2383,-0.71748 0.18151,-0.15364 2.30561,-0.83511 3.13017,-1.00424 l 0.743,-0.1524 0.13829,0.26712 c 0.46995,0.90771 0.81902,2.67466 0.81898,4.14557 -4e-5,1.59662 -0.30738,2.70095 -0.92201,3.3129 -0.46564,0.4636 -0.99678,0.54526 -1.78975,0.27515 z"
             id="path71354" />
          <g
             id="g118608">
            <g
               id="g116256"
               transform="translate(-233.35648,-76.522284)">
              <ellipse
                 style="fill:#000000;fill-opacity:1;stroke:none;stroke-width:1.00586;stroke-linecap:round"
                 id="path3149"
                 cx="138.56435"
                 cy="161.06752"
                 rx="3.1788745"
                 ry="3.1177537" />
              <ellipse
                 style="fill:#000000;fill-opacity:1;stroke:none;stroke-width:1.00586;stroke-linecap:round"
                 id="ellipse4441"
                 cx="157.85655"
                 cy="161.20828"
                 rx="3.1788745"
                 ry="3.1177537" />
              <g
                 id="g116223">
                <g
                   id="g8994"
                   style="stroke-width:2;stroke-miterlimit:4;stroke-dasharray:none">
                  <path
                     style="fill:none;stroke:#000000;stroke-width:2;stroke-linecap:round;stroke-linejoin:miter;stroke-miterlimit:4;stroke-dasharray:none;stroke-opacity:1"
                     d="m 168.92118,193.28826 c 2.12078,-4.93728 11.04333,-9.88968 13.58138,-11.07674 3.10275,-1.45117 11.82653,-4.30965 14.93091,0.91534 2.76567,4.65492 -6.07068,9.87563 -9.79989,10.91167 -3.03247,0.84248 -16.07315,3.289 -18.7124,-0.75027 z"
                     id="path1211"
                     sodipodi:nodetypes="csssc" />
                  <path
                     style="fill:none;stroke:#000000;stroke-width:2;stroke-linecap:round;stroke-linejoin:miter;stroke-miterlimit:4;stroke-dasharray:none;stroke-opacity:1"
                     d="m 137.33398,182.40731 c -12.19255,-2.54225 -14.12526,-16.34702 -13.52212,-21.78748 0.57429,-5.18021 1.19921,-7.03224 3.8453,-11.28768"
                     id="path1213"
                     sodipodi:nodetypes="csc" />
                  <path
                     style="fill:none;stroke:#000000;stroke-width:2;stroke-linecap:round;stroke-linejoin:miter;stroke-miterlimit:4;stroke-dasharray:none;stroke-opacity:1"
                     d="m 140.91517,142.12053 c 5.04161,-2.40007 9.10536,-2.50292 15.41689,-0.60573"
                     id="path1328"
                     sodipodi:nodetypes="cc" />
                  <path
                     style="fill:none;stroke:#000000;stroke-width:2;stroke-linecap:round;stroke-linejoin:miter;stroke-miterlimit:4;stroke-dasharray:none;stroke-opacity:1"
                     d="m 127.65716,149.33215 c 0,0 -2.24777,-10.83457 1.5874,-13.71465 3.83518,-2.88008 11.67061,6.50303 11.67061,6.50303"
                     id="path1762" />
                  <path
                     style="fill:none;stroke:#000000;stroke-width:2;stroke-linecap:butt;stroke-linejoin:miter;stroke-miterlimit:4;stroke-dasharray:none;stroke-opacity:1"
                     d="m 156.33206,141.5148 c 0,0 5.93056,-6.72018 9.80383,-6.45731 3.87327,0.26286 4.52093,11.94317 3.50499,13.87465"
                     id="path1764" />
                  <path
                     style="fill:none;stroke:#000000;stroke-width:2;stroke-linecap:round;stroke-linejoin:miter;stroke-miterlimit:4;stroke-dasharray:none;stroke-opacity:1"
                     d="m 163.76113,179.2758 c 12.20397,-7.22304 12.16588,-20.1491 5.87975,-30.34366"
                     id="path1799"
                     sodipodi:nodetypes="cc" />
                  <path
                     style="fill:none;stroke:#000000;stroke-width:2;stroke-linecap:butt;stroke-linejoin:miter;stroke-miterlimit:4;stroke-dasharray:none;stroke-opacity:1"
                     d="m 132.96544,180.32726 c -0.13969,0.50287 2.45096,12.69748 16.83921,14.00037 14.38825,1.30289 14.37531,0.20573 19.29639,-0.70859"
                     id="path1929" />
                  <path
                     style="fill:none;stroke:#000000;stroke-width:2;stroke-linecap:round;stroke-linejoin:miter;stroke-miterlimit:4;stroke-dasharray:none;stroke-opacity:1"
                     d="m 169.64088,148.93214 c 0,0 10.95946,-3.41723 17.77895,0.36572 6.8195,3.78296 10.21732,11.75028 11.32773,17.00617 0.95503,4.52043 0.29208,10.86886 -1.94298,15.23469"
                     id="path1997"
                     sodipodi:nodetypes="cssc" />
                  <path
                     style="fill:none;stroke:#000000;stroke-width:2;stroke-linecap:round;stroke-linejoin:miter;stroke-miterlimit:4;stroke-dasharray:none;stroke-opacity:1"
                     d="m 143.32288,166.84558 c 0,0 3.98044,0.61933 4.66079,-3.58929"
                     id="path2937" />
                  <path
                     style="fill:none;stroke:#000000;stroke-width:2;stroke-linecap:round;stroke-linejoin:miter;stroke-miterlimit:4;stroke-dasharray:none;stroke-opacity:1"
                     d="m 152.51933,166.90188 c -2.55717,0.0282 -4.23068,-1.43571 -4.53566,-3.64559"
                     id="path3070" />
                </g>
                <g
                   id="g116193">
                  <path
                     style="fill:#d45500;fill-opacity:1;stroke:none;stroke-width:0.0619164;stroke-linecap:round;stroke-miterlimit:4;stroke-dasharray:none;stroke-opacity:1"
                     d="m 232.33524,230.74621 c -0.52794,-0.74583 -0.9961,-1.5139 -1.29983,-2.13251 -0.18959,-0.38613 -0.19766,-0.4273 -0.11537,-0.58821 0.0487,-0.0952 0.39535,-0.48129 0.77041,-0.85807 1.04066,-1.04543 2.29474,-1.83257 3.40218,-2.13541 1.43915,-0.39355 3.00597,0.25565 3.00678,1.24584 0.001,1.61668 -2.43887,4.32072 -4.45775,4.93975 -0.84388,0.25875 -0.77095,0.28507 -1.30642,-0.47139 z"
                     id="path71276"
                     transform="translate(-103.70547,-55.178323)" />
                  <path
                     style="fill:#ff7f2a;fill-opacity:1;stroke:none;stroke-width:0.0619164;stroke-linecap:round;stroke-miterlimit:4;stroke-dasharray:none;stroke-opacity:1"
                     d="m 229.60487,224.80909 c -0.15487,-0.0432 -0.47981,-1.2541 -0.76503,-2.85097 l -0.15021,-0.84095 0.22794,-0.25446 c 0.56817,-0.63426 1.34611,-1.1167 2.37522,-1.47299 0.5418,-0.18757 0.64282,-0.20239 1.39027,-0.20391 0.78692,-0.002 0.81577,0.003 1.218,0.20109 1.09986,0.54119 1.50603,1.61287 1.00256,2.64525 -0.53841,1.10403 -2.22557,2.24753 -3.87629,2.62721 -0.54171,0.12459 -1.24652,0.19878 -1.42246,0.14973 z"
                     id="path71315"
                     transform="translate(-103.70547,-55.178323)" />
                  <path
                     style="fill:#d45500;fill-opacity:1;stroke:none;stroke-width:0.062;stroke-linecap:round;stroke-miterlimit:4;stroke-dasharray:none;stroke-opacity:1"
                     d="m 255.59994,204.59793 c -0.85602,-0.34735 -1.45465,-1.07732 -1.82386,-2.22407 -0.2155,-0.66931 -0.28292,-1.16533 -0.28195,-2.0742 10e-4,-1.23081 0.20828,-2.21317 0.6881,-3.26609 0.20843,-0.45739 0.22823,-0.47985 0.42297,-0.47985 0.43059,0 2.14248,0.33459 3.65998,0.71536 l 0.44515,0.1117 0.0502,0.40686 c 0.0276,0.22377 0.0485,0.90839 0.0463,1.52136 -0.003,0.90397 -0.0295,1.23365 -0.13971,1.74532 -0.27903,1.29558 -0.78878,2.44445 -1.35682,3.058 -0.55751,0.60218 -1.06677,0.74676 -1.71038,0.48561 z"
                     id="path71393"
                     transform="translate(-103.70547,-55.178323)" />
                  <path
                     style="fill:#803300;fill-opacity:1;stroke:none;stroke-width:0.0619164;stroke-linecap:round;stroke-miterlimit:4;stroke-dasharray:none;stroke-opacity:1"
                     d="m 272.33943,222.77357 c -1.15168,-0.29461 -2.13601,-0.9152 -2.60105,-1.6399 -0.38958,-0.60712 -0.55354,-1.57935 -0.34736,-2.05984 0.20033,-0.46687 0.72642,-0.80922 1.55529,-1.01211 0.52948,-0.12961 1.98718,-0.14553 2.72433,-0.0298 0.70914,0.11138 1.86407,0.40615 2.3439,0.59824 l 0.41138,0.16469 v 0.29982 c 0,0.58539 -0.27641,2.34131 -0.49825,3.16513 -0.0563,0.20907 -0.0926,0.23795 -0.44799,0.35621 -1.05161,0.34996 -2.16886,0.406 -3.14025,0.15752 z"
                     id="path71432"
                     transform="translate(-103.70547,-55.178323)" />
                  <path
                     style="fill:#aa4400;fill-opacity:1;stroke:none;stroke-width:0.0619164;stroke-linecap:round;stroke-miterlimit:4;stroke-dasharray:none;stroke-opacity:1"
                     d="m 270.57481,229.95874 c -0.78869,-0.17391 -1.399,-0.48023 -2.24541,-1.12698 -0.65715,-0.50213 -1.21514,-1.13337 -1.48579,-1.68082 -0.21581,-0.43653 -0.23145,-0.50606 -0.23145,-1.02877 0,-0.46326 0.0253,-0.61189 0.14544,-0.85594 0.54536,-1.1075 2.72253,-1.27029 4.96186,-0.37103 0.92661,0.37211 1.93003,1.05621 2.28933,1.5608 l 0.12445,0.17477 -0.48878,0.73469 c -0.52476,0.78878 -1.16806,1.61193 -1.77667,2.27339 -0.35954,0.39075 -0.39256,0.41141 -0.65013,0.40674 -0.14924,-0.003 -0.43852,-0.0418 -0.64285,-0.0868 z"
                     id="path71471"
                     transform="translate(-103.70547,-55.178323)" />
                  <path
                     style="fill:#ff7f2a;fill-opacity:1;stroke:none;stroke-width:0.0619164;stroke-linecap:round;stroke-miterlimit:4;stroke-dasharray:none;stroke-opacity:1"
                     d="m 282.28634,215.93035 c -0.95442,-0.15958 -1.6303,-0.89422 -1.84,-1.99996 -0.0828,-0.4366 -0.07,-1.48946 0.0295,-2.43021 0.0654,-0.61814 0.18992,-1.20037 0.52308,-2.4457 0.66753,-2.49512 0.91483,-3.88151 0.86575,-4.85345 l -0.0235,-0.46501 1.1157,6.4e-4 c 1.56716,9e-4 3.45834,0.1896 4.38179,0.43721 l 0.23219,0.0623 -0.001,0.66321 c -10e-4,0.804 -0.16471,1.90608 -0.65792,4.43845 -0.2594,1.33188 -0.73595,2.8021 -1.26492,3.90241 -0.93889,1.95298 -2.1191,2.89774 -3.36059,2.69015 z"
                     id="path71510"
                     transform="translate(-103.70547,-55.178323)" />
                  <path
                     style="fill:#ff6600;fill-opacity:1;stroke:none;stroke-width:0.0619164;stroke-linecap:round;stroke-miterlimit:4;stroke-dasharray:none;stroke-opacity:1"
                     d="m 289.46773,220.43924 c -0.34443,-0.0912 -0.73768,-0.49852 -0.89632,-0.92843 -0.17399,-0.47151 -0.27989,-1.38671 -0.23124,-1.99838 0.10326,-1.29838 0.27998,-2.06371 0.8681,-3.75951 0.47172,-1.36017 0.81474,-2.52603 1.15027,-3.90947 0.27388,-1.12921 0.80264,-3.7132 0.80315,-3.92487 1.9e-4,-0.0766 0.0321,-0.13931 0.0708,-0.13931 0.10905,0 1.05898,0.64914 1.75119,1.1967 0.76576,0.60574 2.31351,2.15216 2.9716,2.96905 l 0.48785,0.60556 -0.0732,0.52298 c -0.0402,0.28764 -0.15529,0.80921 -0.25565,1.15906 -0.3701,1.29 -1.8195,4.88594 -2.27314,5.63959 -0.76983,1.27897 -1.95177,2.2534 -3.09423,2.55097 -0.39875,0.10386 -0.92275,0.11044 -1.27926,0.0161 z"
                     id="path71549"
                     transform="translate(-103.70547,-55.178323)" />
                  <path
                     style="fill:#d45500;fill-opacity:1;stroke:none;stroke-width:0.0619164;stroke-linecap:round;stroke-miterlimit:4;stroke-dasharray:none;stroke-opacity:1"
                     d="m 296.19278,226.98285 c -1.09663,-0.2953 -1.68137,-1.0201 -1.73766,-2.15388 -0.0376,-0.75695 0.084,-1.16606 0.58499,-1.96825 1.07007,-1.71345 2.49356,-4.89079 3.3341,-7.44195 l 0.38381,-1.16491 0.32804,0.66958 c 0.85826,1.75182 1.64848,3.92025 2.13577,5.8607 l 0.27563,1.09759 -0.15439,0.59422 c -0.37207,1.43201 -1.19633,2.94331 -2.02239,3.7081 -0.39848,0.36893 -0.94881,0.67836 -1.44072,0.8101 -0.39849,0.10671 -1.27062,0.10087 -1.68718,-0.0113 z"
                     id="path71588"
                     transform="translate(-103.70547,-55.178323)" />
                  <g
                     id="g116175">
                    <path
                       style="fill:#ff7f2a;fill-opacity:1;stroke:none;stroke-width:0.0619164;stroke-linecap:round;stroke-miterlimit:4;stroke-dasharray:none;stroke-opacity:1"
                       d="m 281.93627,249.04337 c -9.8e-4,-2.34928 -0.63942,-4.56868 -1.73214,-6.02137 -0.20492,-0.27243 -0.37264,-0.51197 -0.3727,-0.5323 -1.1e-4,-0.0379 2.33162,-1.58728 3.00758,-1.99847 0.20694,-0.12587 0.41591,-0.21183 0.46438,-0.19102 0.0485,0.0208 0.25238,0.22856 0.45313,0.46166 1.80014,2.09024 2.7045,4.43786 2.80594,7.28396 l 0.0356,0.99926 -0.1792,0.0371 c -0.5692,0.11783 -3.75324,0.47199 -4.24341,0.47199 h -0.23899 l -2.1e-4,-0.51081 z"
                       id="path71666"
                       transform="translate(-103.70547,-55.178323)" />
                    <path
                       style="fill:#ffccaa;fill-opacity:1;stroke:none;stroke-width:0.0619164;stroke-linecap:round;stroke-miterlimit:4;stroke-dasharray:none;stroke-opacity:1"
                       d="m 291.12468,246.8172 c -0.005,-1.11147 -0.0316,-1.5192 -0.13584,-2.0925 -0.39014,-2.14601 -1.29695,-3.7402 -3.27417,-5.75605 -0.41634,-0.42448 -0.75032,-0.77845 -0.74217,-0.7866 0.008,-0.008 0.3224,-0.13843 0.69834,-0.28952 0.84274,-0.33869 2.03732,-0.72998 2.95378,-0.96751 l 0.6922,-0.17941 0.33087,0.321 c 1.24676,1.20955 2.29643,3.14548 2.82616,5.21239 0.11347,0.44271 0.24016,1.07702 0.28154,1.40959 0.0977,0.78539 0.0483,2.2509 -0.0908,2.6933 l -0.10252,0.32599 -0.84867,0.42466 c -0.78755,0.39408 -2.07255,0.93719 -2.42903,1.02666 l -0.15331,0.0385 z"
                       id="path71705"
                       transform="translate(-103.70547,-55.178323)" />
                    <path
                       style="fill:#ffb380;fill-opacity:1;stroke:none;stroke-width:0.0619164;stroke-linecap:round;stroke-miterlimit:4;stroke-dasharray:none;stroke-opacity:1"
                       d="m 298.71583,243.09868 c 0,-1.7851 -1.18043,-4.68133 -2.58635,-6.34572 -0.17978,-0.21284 -0.30196,-0.38698 -0.27149,-0.38698 0.0305,0 0.30283,0.0422 0.60526,0.0937 1.46584,0.24984 2.63467,0.86997 3.35119,1.77801 0.95735,1.21323 1.05867,2.11798 0.38684,3.45418 -0.26416,0.52538 -0.83972,1.31865 -1.2325,1.6987 l -0.25295,0.24475 z"
                       id="path71744"
                       transform="translate(-103.70547,-55.178323)" />
                    <path
                       style="fill:#ffb380;fill-opacity:1;stroke:none;stroke-width:0.0938506;stroke-linecap:round;stroke-miterlimit:4;stroke-dasharray:none;stroke-opacity:1"
                       d="m 277.23457,249.36343 c -0.41294,-0.0658 -1.02532,-0.19179 -1.36083,-0.27987 -0.6716,-0.17631 -1.78316,-0.6725 -1.78316,-0.79599 0,-0.0431 0.17923,-0.34713 0.39829,-0.67562 0.72617,-1.08894 3.01989,-3.30517 4.79383,-4.63187 l 0.35881,-0.26836 0.22083,0.27448 c 1.04966,1.30462 1.82791,3.78672 1.82958,5.83511 l 5.5e-4,0.68042 -1.85355,-0.009 c -1.01945,-0.005 -2.19141,-0.0632 -2.60435,-0.12901 z"
                       id="path72711-6"
                       transform="translate(-103.70547,-55.178323)" />
                    <path
                       style="fill:#ffb380;fill-opacity:1;stroke:none;stroke-width:0.0938506;stroke-linecap:round;stroke-miterlimit:4;stroke-dasharray:none;stroke-opacity:1"
                       d="m 286.66655,247.9666 c 0,-2.5298 -0.80292,-4.79287 -2.45088,-6.90786 l -0.72793,-0.93424 0.29896,-0.17675 c 0.66894,-0.39547 1.19135,-0.67785 2.12429,-1.14824 l 0.98066,-0.49445 0.84942,0.88372 c 1.57,1.6334 2.4433,3.02391 2.91461,4.64077 0.21961,0.75336 0.39602,2.47652 0.41844,4.08723 0.003,0.22077 -0.0455,0.25539 -0.48931,0.3484 -1.97112,0.41313 -3.17769,0.65598 -3.51939,0.70837 l -0.39887,0.0611 z"
                       id="path72750-2"
                       transform="translate(-103.70547,-55.178323)" />
                    <path
                       style="fill:#ff7f2a;fill-opacity:1;stroke:none;stroke-width:0.0938506;stroke-linecap:round;stroke-miterlimit:4;stroke-dasharray:none;stroke-opacity:1"
                       d="m 294.81253,244.91984 c 0.0252,-1.41285 0.005,-1.65401 -0.20459,-2.47576 -0.4765,-1.86598 -1.26238,-3.49221 -2.33382,-4.82944 -0.34842,-0.43485 -0.63349,-0.80564 -0.63349,-0.82398 0,-0.14474 3.20535,-0.45794 3.76719,-0.36809 0.33219,0.0531 0.43836,0.1368 0.80451,0.63413 1.33098,1.80784 2.29192,4.19384 2.39754,5.9531 l 0.0356,0.59378 -0.59232,0.54275 c -0.54522,0.4996 -2.15757,1.6745 -2.9401,2.14242 l -0.32847,0.19641 z"
                       id="path72789-9"
                       transform="translate(-103.70547,-55.178323)" />
                  </g>
                </g>
              </g>
            </g>
            <path
               style="fill:#fffffe;fill-opacity:1;stroke:#fffffe;stroke-width:0.1;stroke-linecap:butt;stroke-linejoin:miter;stroke-miterlimit:4;stroke-dasharray:none;stroke-opacity:1"
               d="m -100.78767,69.335091 c -1.60312,-0.0634 -1.88856,-1.62926 -1.88856,-1.62926 0,0 -0.29999,-2.16187 0.1916,-3.82505 0.42228,-1.42868 1.32942,-0.75305 2.08797,-0.43987 0.758552,0.31319 2.377312,1.79113 2.490712,2.74828 0.11339,0.95714 0.008,1.19886 -0.34409,1.80168 -0.41056,0.70379 -2.537632,1.34422 -2.537632,1.34422 z"
               id="path53415"
               sodipodi:nodetypes="ccssssc" />
            <path
               style="fill:#fffffe;fill-opacity:1;stroke:#ffffff;stroke-width:0.1;stroke-linecap:butt;stroke-linejoin:miter;stroke-miterlimit:4;stroke-dasharray:none;stroke-opacity:1"
               d="m -69.097308,68.487832 c 1.60312,-0.0634 1.88856,-1.62926 1.88856,-1.62926 0,0 0.29999,-2.16187 -0.1916,-3.82505 -0.42228,-1.42868 -1.32942,-0.75305 -2.08797,-0.43987 -0.75855,0.31319 -2.37731,1.79113 -2.49071,2.74828 -0.11339,0.95714 -0.008,1.19886 0.34409,1.80168 0.41056,0.70379 2.53763,1.34422 2.53763,1.34422 z"
               id="path51813"
               sodipodi:nodetypes="ccssssc" />
          </g>
        </g>
      </g>
      <path
         style="fill:#ff9955;fill-opacity:1;stroke:#000000;stroke-width:0.00875636;stroke-linecap:round;stroke-miterlimit:4;stroke-dasharray:none;stroke-opacity:1"
         d="m 260.88943,248.72687 c -3.28876,-0.15145 -7.79132,-0.53572 -9.36295,-0.79908 -5.02688,-0.84237 -9.21374,-3.51002 -11.81774,-7.52966 -0.56173,-0.86712 -1.45961,-2.59307 -1.38683,-2.66586 0.0235,-0.0235 0.21632,0.0192 0.42852,0.0949 0.21219,0.0757 0.76866,0.23089 1.2366,0.34494 0.66197,0.16135 0.91823,0.18876 1.15459,0.1235 0.72355,-0.19978 1.00452,-1.10928 0.51206,-1.65753 -0.18743,-0.20867 -0.39604,-0.30688 -0.94131,-0.44316 -2.90055,-0.72494 -4.83704,-1.80467 -6.87374,-3.83261 l -1.18211,-1.17702 0.50151,-0.11563 c 1.73145,-0.3992 3.9487,-2.42338 4.62615,-4.22331 0.52048,-1.38289 -0.2886,-2.23654 -2.10056,-2.21624 -0.99322,0.0111 -2.1477,0.52609 -3.3543,1.4962 -0.66729,0.5365 -1.47548,1.34133 -1.61603,1.6093 -0.0672,0.12808 -0.15139,-0.004 -0.44808,-0.70051 -0.29488,-0.69271 -0.89232,-2.33361 -0.89232,-2.45082 0,-0.015 0.21041,-0.0273 0.46759,-0.0273 1.43126,0 3.4563,-0.95972 4.46988,-2.11839 1.07557,-1.22954 0.81176,-2.70205 -0.60307,-3.36606 -1.20292,-0.56455 -3.33994,-0.0211 -4.70641,1.19678 l -0.48544,0.43267 -0.0505,-0.37105 c -0.0278,-0.20407 -0.0762,-1.17882 -0.1076,-2.1661 -0.0493,-1.55054 -0.0309,-2.00974 0.13561,-3.37119 0.47514,-3.88589 1.12953,-5.88129 2.90032,-8.84393 0.93573,-1.56554 0.90326,-1.44252 0.69959,-2.65033 -0.46285,-2.74484 -0.62719,-6.33462 -0.36867,-8.05316 0.40496,-2.6921 1.39831,-4.22611 2.73662,-4.22611 1.94927,0 5.30297,2.38096 8.84949,6.28269 0.64419,0.70871 0.66441,0.7224 1.06712,0.7224 0.26898,0 0.61021,-0.0906 0.98984,-0.26269 0.31864,-0.14448 0.58783,-0.26269 0.5982,-0.26269 0.0104,0 -0.0411,0.20687 -0.11442,0.45971 -0.19656,0.67813 -0.19087,2.8197 0.01,3.56822 0.35499,1.32616 1.0438,2.22952 2.05192,2.69106 0.65682,0.3007 1.47158,0.32694 1.83382,0.0591 0.39472,-0.2919 0.80123,-0.88122 0.94837,-1.37486 0.47462,-1.5923 0.28242,-4.34792 -0.42465,-6.08801 l -0.2116,-0.52077 0.49323,-0.0519 c 0.95329,-0.10026 3.33131,-0.086 3.50012,0.021 0.0951,0.0603 0.0829,0.14167 -0.0642,0.43015 -0.0998,0.19568 -0.28694,0.70342 -0.41579,1.12831 -0.21118,0.69634 -0.23459,0.91068 -0.2374,2.17353 -0.003,1.28936 0.0155,1.45719 0.23104,2.10572 0.40723,1.2255 1.07965,2.01113 1.95843,2.28815 0.61903,0.19512 1.04428,0.0698 1.57973,-0.46568 0.47585,-0.47585 1.06598,-1.67533 1.35103,-2.74608 0.17171,-0.64501 0.19846,-0.96326 0.20052,-2.38592 0.002,-1.60975 0.006,-1.64053 0.18022,-1.58475 0.67195,0.2149 1.03875,0.27244 1.28551,0.20167 0.17277,-0.0496 0.80684,-0.60403 1.76987,-1.54772 2.66529,-2.61177 4.78013,-4.13136 6.4791,-4.65548 0.75787,-0.23379 1.32576,-0.23813 1.69507,-0.0129 0.91955,0.56067 1.76527,2.72892 2.22809,5.71232 0.16029,1.03327 0.19515,1.63417 0.1996,3.44098 0.005,2.05449 -0.007,2.22889 -0.19796,2.83649 -0.24326,0.77444 -0.22421,0.87787 0.33214,1.80386 1.01476,1.68894 2.0844,4.10381 2.65838,6.00166 0.62581,2.06924 0.90994,3.78977 0.99265,6.01097 l 0.056,1.50447 -0.5998,-0.21772 c -1.2757,-0.46305 -2.00712,-0.5892 -3.45494,-0.59588 -1.64588,-0.008 -2.17974,0.1264 -2.77459,0.69637 -0.3709,0.35538 -0.3777,0.37236 -0.3777,0.94279 0,1.48946 0.97295,2.57976 2.80203,3.13997 0.85503,0.26187 2.19946,0.26361 3.09572,0.004 l 0.60015,-0.17384 -0.0498,0.24912 c -0.13815,0.69075 -1.43297,3.67278 -1.59475,3.67278 -0.0267,0 -0.14713,-0.11705 -0.26751,-0.26011 -0.34052,-0.40469 -1.43853,-1.09634 -2.21711,-1.39659 -1.81635,-0.70046 -3.75048,-0.71668 -4.5568,-0.0382 -0.40408,0.34001 -0.52638,0.64744 -0.52638,1.3231 0,0.46325 0.0494,0.69888 0.21656,1.03322 0.65054,1.30107 2.48577,2.62067 3.99938,2.87571 l 0.62519,0.10534 -0.77875,0.68712 c -0.96601,0.85234 -2.20665,1.78559 -3.21023,2.41483 -0.85553,0.53642 -1.08244,0.85002 -0.99683,1.37761 0.0867,0.53407 0.64077,0.9531 1.15087,0.87033 0.81027,-0.13149 4.08842,-2.57692 5.56142,-4.14869 2.43048,-2.59346 4.02429,-5.48133 4.82092,-8.73514 0.42225,-1.7247 0.55114,-2.8663 0.54924,-4.86489 -0.004,-3.98776 -0.91739,-7.68541 -2.86941,-11.61345 -0.35592,-0.7162 -0.62097,-1.329 -0.58902,-1.36177 0.1857,-0.1904 4.3921,-0.85557 6.16567,-0.975 l 0.59105,-0.0398 -3.5e-4,0.62476 c -5.2e-4,0.90829 -0.20173,2.01901 -0.79529,4.38999 -0.8394,3.35291 -0.90187,5.05904 -0.22648,6.18526 0.37614,0.62721 0.91254,0.95551 1.65907,1.01544 0.61821,0.0496 1.10339,-0.10934 1.68295,-0.55139 0.9111,-0.69494 1.94296,-2.67574 2.52871,-4.85426 0.36616,-1.36185 0.84765,-4.17038 0.90446,-5.27571 0.0291,-0.56588 0.0661,-1.02887 0.0822,-1.02887 0.0161,0 0.41402,0.12185 0.88416,0.27078 0.75441,0.23897 2.26001,0.917 2.52795,1.13842 0.0701,0.058 0.0422,0.36526 -0.1006,1.10865 -0.52334,2.72357 -0.92746,4.26194 -2.00479,7.63153 -0.92837,2.9037 -0.87249,5.16308 0.14566,5.88928 0.24327,0.1735 0.39313,0.20439 0.99177,0.20439 0.64097,0 0.76695,-0.0305 1.38318,-0.33515 0.8141,-0.40244 1.65259,-1.15721 2.19217,-1.97331 0.78165,-1.18222 2.33449,-5.13512 2.67185,-6.80146 l 0.15044,-0.74306 0.44357,0.63587 c 0.4857,0.69627 1.32547,2.06011 1.60084,2.59989 l 0.17461,0.34227 -0.48538,1.42998 c -0.81088,2.38897 -2.10732,5.28888 -3.11174,6.96045 -0.55518,0.92394 -0.68984,1.32198 -0.68984,2.0392 0,1.0783 0.4386,1.82558 1.30734,2.22747 0.32703,0.15129 0.56818,0.18512 1.31957,0.18512 0.87029,0 0.94905,-0.0155 1.47389,-0.28948 0.94273,-0.49217 1.6061,-1.29186 2.30004,-2.77268 0.18216,-0.38873 0.40954,-0.98177 0.50529,-1.31787 0.0958,-0.3361 0.17719,-0.57169 0.18097,-0.52353 0.004,0.0482 0.0479,0.34056 0.0981,0.64978 0.35743,2.2029 0.22696,5.61082 -0.31846,8.31866 -0.30399,1.5092 -1.26116,4.44394 -1.4243,4.36699 -0.0315,-0.0149 -0.29369,-0.14929 -0.58265,-0.29873 -1.91863,-0.99223 -4.85888,-1.19507 -8.02971,-0.55394 -3.01988,0.6106 -5.82202,1.77745 -9.32282,3.88213 -4.85284,2.91752 -8.51289,6.16161 -9.8868,8.76318 l -0.34321,0.64989 -1.14465,0.2704 c -1.67567,0.39586 -2.68997,0.58967 -3.63297,0.69418 -1.19766,0.13274 -4.07225,0.18082 -5.86772,0.0981 z m -7.16067,-21.88972 c 2.99839,-0.5175 5.40296,-2.0464 6.37175,-4.05135 0.5444,-1.12663 0.64146,-2.24368 0.30158,-3.47081 -0.0518,-0.18693 -0.037,-0.20038 0.15251,-0.13877 0.42955,0.13963 1.50289,0.066 2.04868,-0.14058 0.72004,-0.27252 1.51686,-1.06525 1.78082,-1.77171 0.25354,-0.67855 0.25687,-1.62664 0.008,-2.29168 -0.37135,-0.99253 -1.41786,-1.82125 -2.48228,-1.96569 -1.89859,-0.25765 -3.5221,0.98161 -3.71412,2.83506 l -0.0582,0.56196 -0.61295,-0.38779 c -1.05971,-0.67043 -2.59522,-1.20335 -4.13226,-1.43416 -0.89925,-0.13503 -2.99947,-0.11615 -3.92359,0.0353 -1.40854,0.2308 -2.82615,0.71197 -3.72254,1.26353 l -0.41384,0.25463 -0.0474,-0.52247 c -0.093,-1.02606 -0.80415,-2.01572 -1.79352,-2.49607 -0.44539,-0.21624 -0.60187,-0.24425 -1.37808,-0.24666 -0.77073,-0.002 -0.9358,0.0255 -1.37788,0.23266 -0.61512,0.28829 -1.27195,0.93045 -1.55049,1.51589 -0.24375,0.51229 -0.3422,1.634 -0.19212,2.18909 0.15311,0.56632 0.63617,1.28261 1.10653,1.64075 0.57078,0.43461 1.44216,0.70524 2.14335,0.66568 0.29021,-0.0164 0.52759,-0.0249 0.5275,-0.0189 -9e-5,0.006 -0.0555,0.1678 -0.12319,0.35959 -0.80172,2.27231 0.7068,4.96488 3.58179,6.39318 2.13088,1.05862 4.94649,1.43004 7.49988,0.98934 z m -16.67277,-26.31988 c 0.95873,-0.38745 1.39276,-0.68423 1.72905,-1.1823 0.23028,-0.34105 0.26754,-0.48212 0.2946,-1.11527 0.0275,-0.64465 0.005,-0.77801 -0.20423,-1.20557 -0.36527,-0.74661 -1.47788,-1.79882 -2.36892,-2.24035 -0.39758,-0.197 -0.9033,-0.37853 -1.12383,-0.40339 -0.36721,-0.0414 -0.42612,-0.02 -0.69962,0.25346 -0.45008,0.45008 -0.62103,1.30474 -0.61901,3.09479 0.001,1.26466 0.0208,1.44363 0.19926,1.83884 0.24684,0.5467 0.56828,0.89446 1.02014,1.10366 0.51089,0.23653 0.91178,0.20399 1.77256,-0.14387 z m 31.58918,-0.71945 c 0.37785,-0.18554 0.73233,-0.53792 0.94646,-0.94085 0.16331,-0.30733 0.19003,-0.52734 0.21798,-1.79506 0.057,-2.58604 -0.37932,-3.73224 -1.35138,-3.54989 -1.19385,0.22397 -2.86304,1.52969 -3.46573,2.71106 -0.26777,0.52489 -0.26531,1.54549 0.005,2.06472 0.29585,0.56832 0.48301,0.73947 1.19144,1.08951 1.29642,0.64057 1.82409,0.73091 2.45623,0.42051 z"
         id="path124559"
         transform="translate(-103.70547,-55.178323)" />
    </g>
    <g
       id="g9581"
       transform="matrix(-0.73673937,0,0,0.73673937,125.46226,-14.005971)"
       style="display:inline" />
    <path
       style="fill:#a0a0a0;stroke:none;stroke-width:0.177046"
       d="m 66.923429,189.40524 c -4.982114,-0.8375 -9.106256,-4.08744 -12.380739,-9.75639 l -0.746438,-1.29227 0.559342,-0.87166 c 0.604322,-0.94175 2.200714,-2.50057 3.419861,-3.33936 3.482108,-2.39576 9.015561,-3.93708 15.69868,-4.37282 1.022441,-0.0667 1.989644,-0.18838 2.149342,-0.27048 0.242774,-0.12481 0.310501,-0.0122 0.413292,0.6875 0.06761,0.46023 0.598808,2.86499 1.180427,5.34391 1.259603,5.36857 1.62605,7.61947 1.521809,9.34774 -0.09106,1.50977 -0.258909,1.75176 -1.807891,2.60654 -2.324298,1.28262 -5.460803,2.06053 -8.127631,2.0158 -0.790591,-0.0133 -1.636616,-0.0576 -1.880054,-0.0985 z"
       id="path22133"
       transform="matrix(0.26458333,0,0,0.26458333,0.57192887,0.905816)" />
    <g
       id="g23515"
       style="filter:url(#filter23527)">
      <path
         style="display:inline;fill:none;stroke:#000000;stroke-width:2;stroke-linecap:round;stroke-linejoin:round;stroke-miterlimit:4;stroke-dasharray:none;stroke-opacity:1"
         d="m 124.57249,61.549656 c -8.75336,-5.521455 -11.46673,-17.635491 -3.22493,-27.973681 0,0 -1.93972,-9.938582 1.79691,-11.984131 3.73664,-2.045548 9.57959,5.376259 9.57959,5.376259 0,0 4.70055,-1.103097 7.47328,-1.167355 2.77272,-0.06426 7.09246,1.69213 7.09246,1.69213 0,0 5.64066,-6.843486 9.22259,-5.761808 3.58194,1.081677 2.53473,11.962711 2.53473,11.962711 0,0 10.4364,16.160902 -6.17616,28.198585"
         id="path7273"
         sodipodi:nodetypes="ccscscscc"
         transform="matrix(-0.73673938,0,0,0.73673938,125.46226,-14.005971)" />
      <g
         id="g23489">
        <path
           style="display:inline;fill:none;stroke:#000000;stroke-width:2;stroke-linecap:round;stroke-linejoin:round;stroke-miterlimit:4;stroke-dasharray:none;stroke-opacity:1"
           d="m 122.07342,59.729201 c 0,0 -2.20148,22.329499 6.53321,27.255947 8.73468,4.926448 9.96039,0.471221 9.96039,0.471221 0,0 -2.17772,-4.947874 -1.04721,-8.99613"
           id="path7825"
           sodipodi:nodetypes="cscc"
           transform="matrix(-0.73673938,0,0,0.73673938,125.46226,-14.005971)" />
        <path
           style="display:inline;fill:none;stroke:#000000;stroke-width:2;stroke-linecap:round;stroke-linejoin:round;stroke-miterlimit:4;stroke-dasharray:none;stroke-opacity:1"
           d="m 141.13744,78.813662 c 1.07101,1.724256 -2.22532,7.80735 -0.3689,9.274578 1.85642,1.467228 10.2103,4.380264 12.37612,-10.441932"
           id="path7940"
           transform="matrix(-0.73673938,0,0,0.73673938,125.46226,-14.005971)" />
        <path
           style="display:inline;fill:none;stroke:#000000;stroke-width:2;stroke-linecap:round;stroke-linejoin:round;stroke-miterlimit:4;stroke-dasharray:none;stroke-opacity:1"
           d="m 158.78532,56.216237 c 0,0 7.63987,5.279871 7.33047,15.432647 -0.30941,10.152777 -4.29594,10.227745 -8.82989,10.570455 -4.53394,0.34271 -8.08018,2.216909 -3.54623,7.325422 4.53394,5.108513 21.4321,-3.480652 11.92391,-13.483491"
           id="path8055"
           transform="matrix(-0.73673938,0,0,0.73673938,125.46226,-14.005971)" />
        <ellipse
           style="display:inline;fill:#000000;stroke:#000000;stroke-width:2;stroke-linecap:round;stroke-linejoin:round;stroke-miterlimit:4;stroke-dasharray:none;paint-order:stroke fill markers"
           id="path8228"
           cx="130.72485"
           cy="44.151783"
           rx="1.8921177"
           ry="1.8581296"
           transform="matrix(-0.73673938,0,0,0.73673938,125.46226,-14.005971)" />
        <ellipse
           style="display:inline;fill:#000000;stroke:#000000;stroke-width:2;stroke-linecap:round;stroke-linejoin:round;stroke-miterlimit:4;stroke-dasharray:none;paint-order:stroke fill markers"
           id="ellipse8310"
           cx="147.96812"
           cy="44.869335"
           rx="1.8921177"
           ry="1.8581296"
           transform="matrix(-0.73673938,0,0,0.73673938,125.46226,-14.005971)" />
        <path
           style="display:inline;fill:none;stroke:#000000;stroke-width:2;stroke-linecap:round;stroke-linejoin:round;stroke-miterlimit:4;stroke-dasharray:none;stroke-opacity:1"
           d="m 134.62809,49.404883 c 0,0 1.36851,0.824643 2.45142,-0.03213 1.08291,-0.856774 1.66602,-2.291872 1.66602,-2.291872 0,0 0.8925,1.820645 2.29672,2.452517 1.40421,0.631871 1.95161,0.117806 1.95161,0.117806"
           id="path8345"
           transform="matrix(-0.73673938,0,0,0.73673938,125.46226,-14.005971)" />
        <path
           style="fill:#6c6753;stroke:#6c6753;stroke-width:0.249449;stroke-miterlimit:4;stroke-dasharray:none;stroke-opacity:1"
           d="M 71.348957,38.605774 C 68.543254,37.5342 66.187351,34.496068 65.460936,31.012681 65.308557,30.281977 65.183883,27.960053 65.183883,25.85285 v -3.831277 l 3.321871,-1.046706 c 2.967388,-0.935009 8.3552,-2.288922 9.132436,-2.294906 0.437704,-0.0034 1.57429,2.630339 2.0006,4.635813 0.27043,1.27217 0.35083,2.93136 0.292261,6.031306 l -0.08079,4.276356 -0.957891,1.93683 c -1.2642,2.556179 -2.20405,3.215649 -4.752957,3.335034 -1.188811,0.05568 -2.146864,-0.04372 -2.790452,-0.289526 z"
           id="path20787"
           transform="matrix(0.26458333,0,0,0.26458333,0.57192887,0.905816)" />
        <path
           style="fill:#918a6f;stroke:#918a6f;stroke-width:0.250707"
           d="m 23.573499,76.904447 c -0.347527,-2.216498 -0.65193,-9.986512 -0.426436,-10.884951 0.113292,-0.451393 0.595741,-0.788573 1.980036,-1.383831 3.779844,-1.625366 6.477022,-1.598955 8.441609,0.08266 2.679197,2.293293 4.118891,7.500876 2.792489,10.100839 -0.657635,1.289073 -2.311058,2.666455 -3.790847,3.157962 -1.050498,0.348919 -5.606845,0.846948 -7.907887,0.864367 l -0.784322,0.0059 z"
           id="path21072"
           transform="matrix(0.26458333,0,0,0.26458333,0.57192887,0.905816)" />
        <path
           style="fill:#484537;stroke:#484537;stroke-width:0.250707"
           d="m 31.542181,96.938454 c -1.986839,-2.932721 -3.632682,-5.958408 -4.794901,-8.814858 -1.41348,-3.473988 -1.53348,-3.07705 1.20472,-3.98502 6.246594,-2.071332 10.337939,-1.247466 12.319614,2.480776 0.729926,1.373253 0.659722,5.023398 -0.125007,6.499493 -0.786581,1.479579 -2.745166,3.398168 -5.065498,4.962054 l -1.898208,1.279379 z"
           id="path21111"
           transform="matrix(0.26458333,0,0,0.26458333,0.57192887,0.905816)" />
        <path
           style="fill:#aca793;stroke:#aca793;stroke-width:0.250707"
           d="m 135.72292,81.485788 c -6.55883,-1.190387 -9.95417,-4.484073 -9.54992,-9.263996 0.27914,-3.300635 2.18685,-6.310582 4.67921,-7.382763 2.60062,-1.11876 5.14579,-0.967434 10.45991,0.621907 2.7578,0.824799 3.06363,0.974536 3.20838,1.570862 0.35349,1.456266 0.4495,9.770753 0.14183,12.282365 l -0.31137,2.541752 -3.41902,-0.02263 c -1.88046,-0.01244 -4.22452,-0.168819 -5.20902,-0.3475 z"
           id="path21150"
           transform="matrix(0.26458333,0,0,0.26458333,0.57192887,0.905816)" />
        <path
           style="fill:#918a6f;stroke:#918a6f;stroke-width:0.250707"
           d="m 130.3186,103.03505 c -2.76616,-1.8809 -5.61373,-4.745548 -6.46474,-6.503499 -0.32266,-0.666525 -0.63943,-1.761137 -0.70394,-2.432472 -0.24241,-2.522826 2.2656,-5.945573 5.4629,-7.455369 1.18288,-0.558572 1.71743,-0.651126 3.7606,-0.651126 3.49594,0 5.48402,0.955603 7.97845,3.834954 l 1.2805,1.478104 -1.34953,2.733677 c -0.74225,1.503522 -2.00758,3.7145 -2.81185,4.913285 -1.58583,2.363716 -4.26149,5.717666 -4.56134,5.717666 -0.10241,0 -1.26838,-0.73585 -2.59105,-1.63522 z"
           id="path21189"
           transform="matrix(0.26458333,0,0,0.26458333,0.57192887,0.905816)" />
        <path
           style="fill:#aca793;stroke:#aca793;stroke-width:0.250707"
           d="m 88.541872,38.833704 c -2.413659,-1.202777 -3.547244,-3.47392 -3.741092,-7.495299 -0.132429,-2.747217 0.1037,-4.687167 1.136642,-9.338244 0.802384,-3.612936 0.244995,-3.360116 5.445368,-2.4699 6.776239,1.159977 8.108295,1.466217 7.967992,1.831839 -0.07182,0.187163 0.01081,1.436625 0.183633,2.776582 0.860495,6.671871 0.03729,11.090951 -2.530249,13.582659 -1.283052,1.245159 -2.826701,1.76505 -5.240751,1.76505 -1.556928,0 -2.154879,-0.121146 -3.221543,-0.652687 z"
           id="path21228"
           transform="matrix(0.26458333,0,0,0.26458333,0.57192887,0.905816)" />
        <path
           style="fill:#e3e2db;stroke:#e3e2db;stroke-width:0.177046"
           d="m 92.123422,188.98502 c -0.727467,-0.23058 -1.369612,-0.59784 -1.925895,-1.10147 l -0.834542,-0.75556 0.803595,-2.47377 c 1.452217,-4.47048 2.332533,-8.72762 2.561733,-12.38836 0.06706,-1.07113 0.149742,-1.76824 0.183728,-1.54915 0.07944,0.51212 0.145478,0.5035 1.099443,-0.14352 2.598102,-1.76213 6.346946,-3.13216 9.080366,-3.31845 2.72733,-0.18587 6.33411,0.0336 8.18995,0.49841 3.35308,0.83976 7.4243,2.90046 9.71478,4.91725 l 0.6605,0.58158 -0.4831,0.83479 c -1.79892,3.10851 -4.52235,6.31768 -6.7721,7.97993 -3.53698,2.61333 -11.11866,5.9757 -15.613253,6.92426 -2.2534,0.47556 -5.154188,0.47298 -6.665205,-0.006 z"
           id="path22172"
           transform="matrix(0.26458333,0,0,0.26458333,0.57192887,0.905816)" />
        <path
           style="fill:#e3e2db;stroke:#e3e2db;stroke-width:0.177046"
           d="m 65.575517,189.01175 c -4.375088,-1.18408 -8.160939,-4.54734 -11.318468,-10.05506 -0.40212,-0.70143 -0.269665,-1.00343 1.107545,-2.5253 3.370301,-3.7243 8.998306,-5.79524 17.843972,-6.56605 1.26588,-0.1103 2.372026,-0.21284 2.458103,-0.22786 0.08608,-0.015 0.392819,1.08808 0.681652,2.45134 0.288831,1.36325 0.597338,2.50537 0.685569,2.53803 0.08823,0.0327 0.120811,0.12347 0.0724,0.2018 -0.04841,0.0783 0.242918,1.64502 0.647397,3.48154 0.636003,2.88773 0.737503,3.6416 0.75084,5.57671 0.01823,2.6454 0.03608,2.61268 -2.003198,3.67363 -2.326429,1.21034 -4.123829,1.64705 -7.099255,1.7249 -2.128183,0.0557 -2.782525,0.009 -3.826557,-0.27368 z"
           id="path22285"
           transform="matrix(0.26458333,0,0,0.26458333,0.57192887,0.905816)" />
        <path
           style="fill:#e3e2db;stroke:#e3e2db;stroke-width:0.177046"
           d="m 29.611131,194.13872 c -1.818963,-0.28574 -4.513955,-0.96156 -4.741373,-1.18897 -0.310878,-0.31088 -0.762461,-2.36164 -1.012239,-4.59685 -0.605874,-5.42182 1.409093,-10.31887 5.253047,-12.76667 l 0.694666,-0.44236 2.757733,0.20573 c 9.427105,0.70326 14.346793,2.92738 14.353266,6.48888 0.0053,2.93754 -4.652533,9.6724 -7.700518,11.13426 -1.885001,0.90406 -3.292372,1.19332 -6.108091,1.25538 -1.411942,0.0311 -2.985363,-0.009 -3.496491,-0.0894 z"
           id="path22551"
           transform="matrix(0.26458333,0,0,0.26458333,0.57192887,0.905816)" />
        <path
           style="fill:#e3e2db;stroke:#e3e2db;stroke-width:0.177046"
           d="m 8.4848165,181.34641 c -0.9764831,-1.52191 -2.1111566,-3.98511 -2.1111566,-4.583 0,-0.44682 1.5468283,-2.93779 2.7524994,-4.43254 1.4091457,-1.74701 3.4256707,-2.98214 4.8738827,-2.98528 0.263448,-5.7e-4 0.637266,0.19296 0.885231,0.4583 0.424751,0.45451 3.26081,2.42719 3.727989,2.59308 0.316361,0.11234 0.291798,0.12959 -1.262743,0.88688 -3.275869,1.59584 -5.887349,4.47874 -7.3555282,8.12001 L 9.42643,182.81397 Z"
           id="path22590"
           transform="matrix(0.26458333,0,0,0.26458333,0.57192887,0.905816)" />
        <path
           style="fill:#918a6f;stroke:#918a6f;stroke-width:0.125152"
           d="m 23.465933,192.6239 c -5.239186,-1.90715 -9.968138,-5.06951 -13.240541,-8.85427 l -0.7168126,-0.82904 0.5783086,-1.36111 c 1.063135,-2.5022 2.530857,-4.62596 4.174837,-6.04089 1.121347,-0.96511 1.706147,-1.3551 3.185711,-2.12446 0.682163,-0.35473 1.305231,-0.69884 1.384594,-0.76471 0.09629,-0.0799 0.523698,0.0438 1.284558,0.37184 1.214266,0.5235 2.75646,0.99791 4.287982,1.31908 1.257315,0.26366 4.195595,0.67984 4.817002,0.68227 l 0.499271,0.002 -0.874726,0.58398 c -3.324073,2.21917 -5.192457,6.14093 -5.192457,10.89902 0,2.18756 0.584561,5.84908 1.01699,6.37012 0.196607,0.2369 0.07001,0.21023 -1.204717,-0.25379 z"
           id="path23076"
           transform="matrix(0.26458333,0,0,0.26458333,0.57192887,0.905816)" />
        <path
           style="fill:#484537;stroke:#484537;stroke-width:0.125152"
           d="m 6.0282111,175.86935 c -0.7672107,-3.49943 -0.3925345,-6.83241 1.166472,-10.37649 0.5730427,-1.30269 2.0506236,-3.8766 2.2644051,-3.94454 0.063257,-0.0201 0.3061379,0.42727 0.5397357,0.99416 0.8006101,1.94291 2.0979251,4.11932 3.2517691,5.45525 0.318265,0.36849 0.675249,0.7958 0.793297,0.94958 0.213292,0.27785 0.21158,0.27972 -0.273658,0.29873 -1.214297,0.0476 -2.842366,0.9881 -4.218871,2.4372 -0.876976,0.92323 -2.416289,3.10319 -2.9883022,4.232 -0.1703313,0.33614 -0.3279417,0.61115 -0.3502454,0.61115 -0.022304,0 -0.1053747,-0.29567 -0.1846023,-0.65704 z"
           id="path23226"
           transform="matrix(0.26458333,0,0,0.26458333,0.57192887,0.905816)" />
        <path
           style="display:inline;fill:#c8c4b7;stroke:#c8c4b7;stroke-width:0.288888"
           d="m 84.264618,181.07543 c -0.09683,-0.92188 -0.778856,-4.27614 -1.515615,-7.45391 -1.177997,-5.0809 -1.316834,-6.02165 -1.151122,-7.79997 0.353361,-3.79207 0.336132,-3.91669 -0.665193,-4.81137 -1.192959,-1.06591 -2.559713,-1.09874 -3.758216,-0.0903 -1.232802,1.03733 -1.624438,2.43146 -1.591436,5.66512 l 0.02843,2.7857 -2.48921,0.18712 c -5.658542,0.42538 -9.558359,1.32504 -13.127414,3.02839 -2.202774,1.05129 -4.592171,2.90129 -5.530305,4.28188 l -0.685631,1.009 -0.574913,-1.12692 c -1.522395,-2.98415 -3.245717,-9.01909 -4.380185,-15.33907 -0.465981,-2.59593 -0.67864,-3.20647 -1.306396,-3.75066 -1.841466,-1.59633 -4.762026,-0.238 -4.762026,2.21477 0,1.22386 1.137926,7.38718 1.868766,10.12174 0.231581,0.8665 0.373408,1.6231 0.315171,1.68134 -0.05824,0.0582 -0.990513,-0.16735 -2.071718,-0.5013 -2.259967,-0.69803 -6.099233,-1.33385 -9.645514,-1.59739 -4.433579,-0.32948 -7.332613,-0.77871 -9.584328,-1.48517 -5.887859,-1.84727 -8.897977,-6.54766 -10.52625,-16.43706 -0.72151,-4.38213 -0.74817,-14.7593 -0.04748,-18.48017 1.897794,-10.07778 6.377869,-18.66694 13.561456,-25.99989 l 2.830033,-2.88888 1.931537,2.16666 c 3.612183,4.05188 9.503094,9.36959 12.925298,11.66763 1.502179,1.00873 2.793152,0.9895 3.966729,-0.0591 0.745689,-0.66627 0.910615,-1.03164 0.910615,-2.01737 0,-0.66205 -0.174026,-1.41342 -0.386726,-1.6697 -0.212696,-0.25629 -1.931569,-1.70601 -3.819714,-3.22162 -3.747861,-3.00839 -8.323101,-7.46015 -10.298279,-10.02034 -0.690584,-0.89513 -1.204747,-1.666305 -1.142585,-1.713726 0.06216,-0.04742 1.040226,-0.693928 2.173475,-1.436685 4.350338,-2.851298 6.093019,-6.083302 5.31106,-9.849973 -1.098393,-5.29093 -6.346819,-6.856291 -13.703693,-4.087169 l -1.87095,0.704221 -0.430085,-1.498036 c -0.236547,-0.823919 -0.515417,-1.888034 -0.619711,-2.364699 -0.104295,-0.476665 -0.246387,-1.078672 -0.315761,-1.337793 -0.110412,-0.412398 0.334063,-0.488812 3.565725,-0.612996 4.213128,-0.161899 5.764964,-0.596917 7.535439,-2.112379 1.56528,-1.339821 2.215595,-3.069325 1.98471,-5.278311 -0.367653,-3.517514 -2.207385,-6.663299 -4.615258,-7.891705 -1.71921,-0.877078 -4.652237,-0.649792 -7.239657,0.561006 l -1.917786,0.897441 v -0.945405 c 0,-1.354436 1.024516,-6.802012 1.865967,-9.921763 1.080184,-4.004865 2.597584,-7.87785 4.785139,-12.213494 L 32.018752,38.13314 31.858296,30.99482 C 31.57362,18.330283 32.964102,10.476111 35.99496,7.6287676 36.996718,6.6876649 39.006412,6.5874337 41.306573,7.3638572 45.45938,8.7656459 49.451832,11.71241 55.70899,17.994048 c 2.780769,2.79165 5.049858,4.83329 5.522346,4.968798 0.547433,0.157002 1.2958,0.05953 2.357442,-0.307046 0.855472,-0.295387 1.562501,-0.541311 1.571174,-0.546498 0.0087,-0.0052 -0.03999,1.554395 -0.108131,3.465739 -0.07453,2.090403 0.01655,4.191241 0.228597,5.272201 0.971258,4.951413 4.37367,8.275217 8.486735,8.290661 2.942579,0.01106 4.525583,-1.239837 5.772052,-4.561055 0.528292,-1.40764 0.617619,-2.265987 0.62201,-5.977003 0.0053,-4.476855 -0.306504,-6.232178 -1.57317,-8.856378 l -0.509915,-1.05641 1.301939,-0.195237 c 1.520392,-0.227997 6.650848,0.103332 6.860823,0.443078 0.07897,0.127772 -0.181049,1.509659 -0.577816,3.07086 -2.356327,9.271707 -1.330383,15.258705 2.96556,17.305827 1.560193,0.74347 5.006976,0.709451 6.704312,-0.06618 3.807529,-1.739908 5.422302,-6.392867 4.672922,-13.464994 -0.189248,-1.785967 -0.423138,-3.539327 -0.519759,-3.896356 -0.173855,-0.642425 -0.153038,-0.647228 2.012009,-0.464215 l 2.18767,0.184926 0.95134,-0.990388 c 0.52323,-0.544714 1.91562,-2.072604 3.0942,-3.39531 5.4313,-6.095528 12.03926,-10.7036793 16.38564,-11.4267514 5.74563,-0.9558579 8.85126,5.9469584 8.37666,18.6186514 -0.15607,4.167117 -0.36948,6.309049 -1.20889,12.133284 -0.1697,1.177492 -0.0896,1.43611 0.84985,2.744434 6.33016,8.815492 10.00471,16.335251 11.57641,23.690451 0.27142,1.270194 0.55097,2.520768 0.62123,2.779051 0.10508,0.386278 -0.3735,0.298528 -2.69696,-0.494498 -8.32784,-2.842386 -13.22981,-1.440865 -15.24326,4.358207 -1.3289,3.82745 -0.30085,7.553515 2.67129,9.681818 2.76769,1.9819 7.8015,3.105739 12.53684,2.798949 2.18,-0.141237 2.55484,-0.100218 2.55484,0.279574 0,1.184336 -2.2004,8.481894 -2.5515,8.461943 -0.10611,-0.006 -0.54602,-0.52156 -0.97757,-1.145621 -1.00671,-1.455818 -3.15683,-3.030054 -4.97891,-3.645373 -1.78555,-0.602984 -4.81529,-0.600662 -6.47289,0.005 -2.79873,1.022542 -5.34934,3.595549 -6.12256,6.176319 -1.02309,3.41476 1.63812,7.499626 7.29011,11.190064 1.16235,0.75895 2.17836,1.44089 2.25781,1.51541 0.23944,0.22462 -4.33709,4.31877 -6.46327,5.78202 -3.23056,2.2233 -3.66534,2.67561 -3.84263,3.99767 -0.13683,1.0204 -0.0432,1.31547 0.66784,2.10447 1.32533,1.47067 2.46645,1.48003 4.68781,0.0384 1.01125,-0.65625 1.89495,-1.13687 1.96378,-1.06804 0.25908,0.25908 0.1037,19.86776 -0.18924,23.88268 -0.95166,13.04287 -3.19167,23.36253 -6.85068,31.56098 -0.40775,0.91361 -0.83769,1.66111 -0.95543,1.66111 -0.11773,0 -0.39248,-0.21731 -0.61054,-0.4829 -1.18997,-1.44932 -5.96265,-3.92232 -9.352,-4.84582 -2.65922,-0.72456 -7.92605,-0.89277 -10.53424,-0.33645 -2.078392,0.44332 -5.26383,1.80558 -7.106342,3.03905 l -0.885088,0.59252 -0.332253,-3.82208 c -0.381375,-4.38717 -0.960413,-6.64095 -1.869823,-7.27793 -0.802466,-0.56207 -2.790857,-0.57445 -3.57918,-0.0223 -1.13781,0.79695 -1.366372,1.91252 -0.853683,4.16665 0.536522,2.3589 0.608432,7.46293 0.14826,10.52279 -0.377175,2.50795 -1.661671,7.76442 -1.976186,8.08702 -0.124248,0.12744 -0.305129,-0.52255 -0.401958,-1.44444 z M 78.59725,84.901124 c 2.278224,-0.67544 3.459197,-1.346815 5.253129,-2.986365 l 1.593684,-1.45654 1.879029,1.842401 c 2.315638,2.270496 3.947377,2.918824 6.820729,2.710033 2.149747,-0.156207 4.753555,-1.151576 5.390218,-2.060541 0.231612,-0.330675 0.421114,-1.163206 0.421114,-1.850071 0,-2.360407 -2.072498,-3.340762 -4.722089,-2.233692 -1.774303,0.741352 -2.470701,0.574549 -3.92543,-0.940225 -0.72551,-0.755456 -1.746072,-2.179528 -2.267919,-3.164607 -1.095852,-2.068609 -2.099046,-2.972917 -3.298011,-2.972917 -1.276179,0 -1.892848,0.454917 -3.033215,2.237597 -2.15728,3.372371 -4.570102,5.329349 -6.547646,5.31062 -0.498074,-0.0047 -1.434553,-0.09141 -2.081063,-0.192656 -1.003781,-0.157193 -1.309704,-0.07114 -2.094436,0.589175 -0.794525,0.66855 -0.918963,0.958552 -0.918963,2.141657 0,1.046843 0.153226,1.512351 0.65206,1.980979 1.59522,1.498634 4.077251,1.875748 6.878809,1.045152 z M 62.727685,76.20407 c 1.099992,-0.351767 1.977238,-0.92044 3.022361,-1.95924 1.856855,-1.84562 2.565086,-3.749338 2.357402,-6.336654 -0.65347,-8.140839 -11.828528,-10.204364 -15.427307,-2.848722 -2.146568,4.387428 -0.03677,9.498762 4.578839,11.093017 1.930146,0.666684 3.499014,0.681487 5.468705,0.0516 z M 110.619,74.224807 c 0.97189,-0.288622 2.00135,-0.890612 2.84064,-1.661104 3.59836,-3.303408 3.60821,-8.637859 0.022,-11.929856 -4.33484,-3.979243 -11.69556,-2.00215 -13.25436,3.560131 -0.452979,1.616353 -0.228294,4.575124 0.45512,5.993326 1.70412,3.536321 5.8929,5.238343 9.93657,4.037503 z"
           id="path20059"
           transform="matrix(0.26458333,0,0,0.26458333,0.57192887,0.905816)" />
        <path
           style="display:inline;fill:#fefefe;fill-opacity:1;stroke:#ffffff;stroke-width:0.736997;stroke-linecap:butt;stroke-linejoin:miter;stroke-miterlimit:4;stroke-dasharray:none;stroke-opacity:1"
           d="m 9.877233,6.1136864 c 0.186056,-2.5143898 0.496142,-2.7655494 2.40317,-1.4818437 1.907035,1.2837065 1.24965,2.266021 0.02173,2.7934572 C 11.074195,7.9527367 9.827646,8.5806357 9.877258,6.1136864 Z"
           id="path8858"
           transform="translate(0.57192887,0.905816)" />
        <path
           style="display:inline;fill:#fefefe;fill-opacity:1;stroke:#ffffff;stroke-width:0.736997;stroke-linecap:butt;stroke-linejoin:miter;stroke-miterlimit:4;stroke-dasharray:none;stroke-opacity:1"
           d="M 33.72347,5.4481408 C 33.537414,2.9337509 33.227328,2.6825913 31.3203,3.9662971 c -1.907035,1.2837065 -1.24965,2.266021 -0.02173,2.7934571 1.227938,0.5274369 2.474487,1.1553356 2.424875,-1.3116134 z"
           id="path8743"
           transform="translate(0.57192887,0.905816)" />
      </g>
    </g>
  </g>
</svg>
