<?xml version="1.0" encoding="UTF-8"?>
<!-- Created with Inkscape (http://www.inkscape.org/) -->
<svg width="94.203mm" height="52.917mm" version="1.1" viewBox="0 0 94.203 52.917" xmlns="http://www.w3.org/2000/svg">
 <defs>
  <filter id="filter23527" x="-.14413" y="-.10755" width="1.3137" height="1.2832" color-interpolation-filters="sRGB">
   <feFlood flood-color="rgb(0,0,0)" flood-opacity=".34902" result="flood"/>
   <feComposite in="flood" in2="SourceGraphic" operator="out" result="composite1"/>
   <feGaussianBlur in="composite1" result="blur" stdDeviation="2"/>
   <feOffset dx="1" dy="3.5" result="offset"/>
   <feComposite in="offset" in2="SourceGraphic" operator="atop" result="composite2"/>
  </filter>
  <filter id="filter23557" x="-.076911" y="-.095901" width="1.1672" height="1.2496" color-interpolation-filters="sRGB">
   <feFlood flood-color="rgb(0,0,0)" flood-opacity=".34902" result="flood"/>
   <feComposite in="flood" in2="SourceGraphic" operator="out" result="composite1"/>
   <feGaussianBlur in="composite1" result="blur" stdDeviation="2"/>
   <feOffset dx="1" dy="3.5" result="offset"/>
   <feComposite in="offset" in2="SourceGraphic" operator="atop" result="composite2"/>
  </filter>
 </defs>
 <g transform="translate(-.57193 -.90582)">
  <g transform="matrix(.68304 0 0 .68304 -42.153 -81.032)" filter="url(#filter23557)">
   <ellipse cx="147.82" cy="165.56" rx="8.9862" ry="6.2011" fill="#fff" stroke="#fffffd" stroke-linecap="round" stroke-width=".1"/>
   <g transform="translate(233.19 76.247)">
    <path d="m-88.674 72.868c-1.4689-0.50036-2.2625-1.7263-2.491-3.8482-0.0808-0.75083-0.0441-1.3759 0.134-2.2785 0.0824-0.41774 0.15995-0.65115 0.2383-0.71748 0.18151-0.15364 2.3056-0.83511 3.1302-1.0042l0.743-0.1524 0.13829 0.26712c0.46995 0.90771 0.81902 2.6747 0.81898 4.1456-4e-5 1.5966-0.30738 2.701-0.92201 3.3129-0.46564 0.4636-0.99678 0.54526-1.7898 0.27515z" fill="#a40"/>
    <g transform="translate(-233.36 -76.522)">
     <ellipse cx="138.56" cy="161.07" rx="3.1789" ry="3.1178"/>
     <ellipse cx="157.86" cy="161.21" rx="3.1789" ry="3.1178"/>
     <g fill="none" stroke="#000" stroke-width="2">
      <g stroke-linecap="round">
       <path d="m168.92 193.29c2.1208-4.9373 11.043-9.8897 13.581-11.077 3.1028-1.4512 11.827-4.3096 14.931 0.91534 2.7657 4.6549-6.0707 9.8756-9.7999 10.912-3.0325 0.84248-16.073 3.289-18.712-0.75027z"/>
       <path d="m137.33 182.41c-12.193-2.5422-14.125-16.347-13.522-21.787 0.57429-5.1802 1.1992-7.0322 3.8453-11.288"/>
       <path d="m140.92 142.12c5.0416-2.4001 9.1054-2.5029 15.417-0.60573"/>
       <path d="m127.66 149.33s-2.2478-10.835 1.5874-13.715c3.8352-2.8801 11.671 6.503 11.671 6.503"/>
      </g>
      <path d="m156.33 141.51s5.9306-6.7202 9.8038-6.4573c3.8733 0.26286 4.5209 11.943 3.505 13.875"/>
      <path d="m163.76 179.28c12.204-7.223 12.166-20.149 5.8798-30.344" stroke-linecap="round"/>
      <path d="m132.97 180.33c-0.13969 0.50287 2.451 12.697 16.839 14s14.375 0.20573 19.296-0.70859"/>
      <g stroke-linecap="round">
       <path d="m169.64 148.93s10.959-3.4172 17.779 0.36572c6.8195 3.783 10.217 11.75 11.328 17.006 0.95503 4.5204 0.29208 10.869-1.943 15.235"/>
       <path d="m143.32 166.85s3.9804 0.61933 4.6608-3.5893"/>
       <path d="m152.52 166.9c-2.5572 0.0282-4.2307-1.4357-4.5357-3.6456"/>
      </g>
     </g>
     <g>
      <path transform="translate(-103.71 -55.178)" d="m232.34 230.75c-0.52794-0.74583-0.9961-1.5139-1.2998-2.1325-0.18959-0.38613-0.19766-0.4273-0.11537-0.58821 0.0487-0.0952 0.39535-0.48129 0.77041-0.85807 1.0407-1.0454 2.2947-1.8326 3.4022-2.1354 1.4392-0.39355 3.006 0.25565 3.0068 1.2458 1e-3 1.6167-2.4389 4.3207-4.4578 4.9398-0.84388 0.25875-0.77095 0.28507-1.3064-0.47139z" fill="#d45500"/>
      <path transform="translate(-103.71 -55.178)" d="m229.6 224.81c-0.15487-0.0432-0.47981-1.2541-0.76503-2.851l-0.15021-0.84095 0.22794-0.25446c0.56817-0.63426 1.3461-1.1167 2.3752-1.473 0.5418-0.18757 0.64282-0.20239 1.3903-0.20391 0.78692-2e-3 0.81577 3e-3 1.218 0.20109 1.0999 0.54119 1.506 1.6129 1.0026 2.6452-0.53841 1.104-2.2256 2.2475-3.8763 2.6272-0.54171 0.12459-1.2465 0.19878-1.4225 0.14973z" fill="#ff7f2a"/>
      <path transform="translate(-103.71 -55.178)" d="m255.6 204.6c-0.85602-0.34735-1.4546-1.0773-1.8239-2.2241-0.2155-0.66931-0.28292-1.1653-0.28195-2.0742 1e-3 -1.2308 0.20828-2.2132 0.6881-3.2661 0.20843-0.45739 0.22823-0.47985 0.42297-0.47985 0.43059 0 2.1425 0.33459 3.66 0.71536l0.44515 0.1117 0.0502 0.40686c0.0276 0.22377 0.0485 0.90839 0.0463 1.5214-3e-3 0.90397-0.0295 1.2336-0.13971 1.7453-0.27903 1.2956-0.78878 2.4444-1.3568 3.058-0.55751 0.60218-1.0668 0.74676-1.7104 0.48561z" fill="#d45500"/>
      <path transform="translate(-103.71 -55.178)" d="m272.34 222.77c-1.1517-0.29461-2.136-0.9152-2.601-1.6399-0.38958-0.60712-0.55354-1.5794-0.34736-2.0598 0.20033-0.46687 0.72642-0.80922 1.5553-1.0121 0.52948-0.12961 1.9872-0.14553 2.7243-0.0298 0.70914 0.11138 1.8641 0.40615 2.3439 0.59824l0.41138 0.16469v0.29982c0 0.58539-0.27641 2.3413-0.49825 3.1651-0.0563 0.20907-0.0926 0.23795-0.44799 0.35621-1.0516 0.34996-2.1689 0.406-3.1402 0.15752z" fill="#803300"/>
      <path transform="translate(-103.71 -55.178)" d="m270.57 229.96c-0.78869-0.17391-1.399-0.48023-2.2454-1.127-0.65715-0.50213-1.2151-1.1334-1.4858-1.6808-0.21581-0.43653-0.23145-0.50606-0.23145-1.0288 0-0.46326 0.0253-0.61189 0.14544-0.85594 0.54536-1.1075 2.7225-1.2703 4.9619-0.37103 0.92661 0.37211 1.93 1.0562 2.2893 1.5608l0.12445 0.17477-0.48878 0.73469c-0.52476 0.78878-1.1681 1.6119-1.7767 2.2734-0.35954 0.39075-0.39256 0.41141-0.65013 0.40674-0.14924-3e-3 -0.43852-0.0418-0.64285-0.0868z" fill="#a40"/>
      <path transform="translate(-103.71 -55.178)" d="m282.29 215.93c-0.95442-0.15958-1.6303-0.89422-1.84-2-0.0828-0.4366-0.07-1.4895 0.0295-2.4302 0.0654-0.61814 0.18992-1.2004 0.52308-2.4457 0.66753-2.4951 0.91483-3.8815 0.86575-4.8534l-0.0235-0.46501 1.1157 6.4e-4c1.5672 9e-4 3.4583 0.1896 4.3818 0.43721l0.23219 0.0623-1e-3 0.66321c-1e-3 0.804-0.16471 1.9061-0.65792 4.4384-0.2594 1.3319-0.73595 2.8021-1.2649 3.9024-0.93889 1.953-2.1191 2.8977-3.3606 2.6902z" fill="#ff7f2a"/>
      <path transform="translate(-103.71 -55.178)" d="m289.47 220.44c-0.34443-0.0912-0.73768-0.49852-0.89632-0.92843-0.17399-0.47151-0.27989-1.3867-0.23124-1.9984 0.10326-1.2984 0.27998-2.0637 0.8681-3.7595 0.47172-1.3602 0.81474-2.526 1.1503-3.9095 0.27388-1.1292 0.80264-3.7132 0.80315-3.9249 1.9e-4 -0.0766 0.0321-0.13931 0.0708-0.13931 0.10905 0 1.059 0.64914 1.7512 1.1967 0.76576 0.60574 2.3135 2.1522 2.9716 2.969l0.48785 0.60556-0.0732 0.52298c-0.0402 0.28764-0.15529 0.80921-0.25565 1.1591-0.3701 1.29-1.8195 4.8859-2.2731 5.6396-0.76983 1.279-1.9518 2.2534-3.0942 2.551-0.39875 0.10386-0.92275 0.11044-1.2793 0.0161z" fill="#f60"/>
      <path transform="translate(-103.71 -55.178)" d="m296.19 226.98c-1.0966-0.2953-1.6814-1.0201-1.7377-2.1539-0.0376-0.75695 0.084-1.1661 0.58499-1.9682 1.0701-1.7134 2.4936-4.8908 3.3341-7.442l0.38381-1.1649 0.32804 0.66958c0.85826 1.7518 1.6485 3.9202 2.1358 5.8607l0.27563 1.0976-0.15439 0.59422c-0.37207 1.432-1.1963 2.9433-2.0224 3.7081-0.39848 0.36893-0.94881 0.67836-1.4407 0.8101-0.39849 0.10671-1.2706 0.10087-1.6872-0.0113z" fill="#d45500"/>
      <path transform="translate(-103.71 -55.178)" d="m281.94 249.04c-9.8e-4 -2.3493-0.63942-4.5687-1.7321-6.0214-0.20492-0.27243-0.37264-0.51197-0.3727-0.5323-1.1e-4 -0.0379 2.3316-1.5873 3.0076-1.9985 0.20694-0.12587 0.41591-0.21183 0.46438-0.19102 0.0485 0.0208 0.25238 0.22856 0.45313 0.46166 1.8001 2.0902 2.7045 4.4379 2.8059 7.284l0.0356 0.99926-0.1792 0.0371c-0.5692 0.11783-3.7532 0.47199-4.2434 0.47199h-0.23899l-2.1e-4 -0.51081z" fill="#ff7f2a"/>
      <path transform="translate(-103.71 -55.178)" d="m291.12 246.82c-5e-3 -1.1115-0.0316-1.5192-0.13584-2.0925-0.39014-2.146-1.297-3.7402-3.2742-5.756-0.41634-0.42448-0.75032-0.77845-0.74217-0.7866 8e-3 -8e-3 0.3224-0.13843 0.69834-0.28952 0.84274-0.33869 2.0373-0.72998 2.9538-0.96751l0.6922-0.17941 0.33087 0.321c1.2468 1.2096 2.2964 3.1455 2.8262 5.2124 0.11347 0.44271 0.24016 1.077 0.28154 1.4096 0.0977 0.78539 0.0483 2.2509-0.0908 2.6933l-0.10252 0.32599-0.84867 0.42466c-0.78755 0.39408-2.0726 0.93719-2.429 1.0267l-0.15331 0.0385z" fill="#fca"/>
      <g fill="#ffb380">
       <path transform="translate(-103.71 -55.178)" d="m298.72 243.1c0-1.7851-1.1804-4.6813-2.5864-6.3457-0.17978-0.21284-0.30196-0.38698-0.27149-0.38698 0.0305 0 0.30283 0.0422 0.60526 0.0937 1.4658 0.24984 2.6347 0.86997 3.3512 1.778 0.95735 1.2132 1.0587 2.118 0.38684 3.4542-0.26416 0.52538-0.83972 1.3186-1.2325 1.6987l-0.25295 0.24475z"/>
       <path transform="translate(-103.71 -55.178)" d="m277.23 249.36c-0.41294-0.0658-1.0253-0.19179-1.3608-0.27987-0.6716-0.17631-1.7832-0.6725-1.7832-0.79599 0-0.0431 0.17923-0.34713 0.39829-0.67562 0.72617-1.0889 3.0199-3.3052 4.7938-4.6319l0.35881-0.26836 0.22083 0.27448c1.0497 1.3046 1.8279 3.7867 1.8296 5.8351l5.5e-4 0.68042-1.8536-9e-3c-1.0194-5e-3 -2.1914-0.0632-2.6044-0.12901z"/>
       <path transform="translate(-103.71 -55.178)" d="m286.67 247.97c0-2.5298-0.80292-4.7929-2.4509-6.9079l-0.72793-0.93424 0.29896-0.17675c0.66894-0.39547 1.1914-0.67785 2.1243-1.1482l0.98066-0.49445 0.84942 0.88372c1.57 1.6334 2.4433 3.0239 2.9146 4.6408 0.21961 0.75336 0.39602 2.4765 0.41844 4.0872 3e-3 0.22077-0.0455 0.25539-0.48931 0.3484-1.9711 0.41313-3.1777 0.65598-3.5194 0.70837l-0.39887 0.0611z"/>
      </g>
      <path transform="translate(-103.71 -55.178)" d="m294.81 244.92c0.0252-1.4128 5e-3 -1.654-0.20459-2.4758-0.4765-1.866-1.2624-3.4922-2.3338-4.8294-0.34842-0.43485-0.63349-0.80564-0.63349-0.82398 0-0.14474 3.2054-0.45794 3.7672-0.36809 0.33219 0.0531 0.43836 0.1368 0.80451 0.63413 1.331 1.8078 2.2919 4.1938 2.3975 5.9531l0.0356 0.59378-0.59232 0.54275c-0.54522 0.4996-2.1576 1.6745-2.9401 2.1424l-0.32847 0.19641z" fill="#ff7f2a"/>
     </g>
    </g>
    <path d="m-100.79 69.335c-1.6031-0.0634-1.8886-1.6293-1.8886-1.6293s-0.29999-2.1619 0.1916-3.825c0.42228-1.4287 1.3294-0.75305 2.088-0.43987 0.75855 0.31319 2.3773 1.7911 2.4907 2.7483 0.11339 0.95714 8e-3 1.1989-0.34409 1.8017-0.41056 0.70379-2.5376 1.3442-2.5376 1.3442z" fill="#fffffe" stroke="#fffffe" stroke-width=".1"/>
    <path d="m-69.097 68.488c1.6031-0.0634 1.8886-1.6293 1.8886-1.6293s0.29999-2.1619-0.1916-3.825c-0.42228-1.4287-1.3294-0.75305-2.088-0.43987-0.75855 0.31319-2.3773 1.7911-2.4907 2.7483-0.11339 0.95714-8e-3 1.1989 0.34409 1.8017 0.41056 0.70379 2.5376 1.3442 2.5376 1.3442z" fill="#fffffe" stroke="#fff" stroke-width=".1"/>
   </g>
   <path transform="translate(-103.71 -55.178)" d="m260.89 248.73c-3.2888-0.15145-7.7913-0.53572-9.363-0.79908-5.0269-0.84237-9.2137-3.51-11.818-7.5297-0.56173-0.86712-1.4596-2.5931-1.3868-2.6659 0.0235-0.0235 0.21632 0.0192 0.42852 0.0949 0.21219 0.0757 0.76866 0.23089 1.2366 0.34494 0.66197 0.16135 0.91823 0.18876 1.1546 0.1235 0.72355-0.19978 1.0045-1.1093 0.51206-1.6575-0.18743-0.20867-0.39604-0.30688-0.94131-0.44316-2.9006-0.72494-4.837-1.8047-6.8737-3.8326l-1.1821-1.177 0.50151-0.11563c1.7314-0.3992 3.9487-2.4234 4.6262-4.2233 0.52048-1.3829-0.2886-2.2365-2.1006-2.2162-0.99322 0.0111-2.1477 0.52609-3.3543 1.4962-0.66729 0.5365-1.4755 1.3413-1.616 1.6093-0.0672 0.12808-0.15139-4e-3 -0.44808-0.70051-0.29488-0.69271-0.89232-2.3336-0.89232-2.4508 0-0.015 0.21041-0.0273 0.46759-0.0273 1.4313 0 3.4563-0.95972 4.4699-2.1184 1.0756-1.2295 0.81176-2.702-0.60307-3.3661-1.2029-0.56455-3.3399-0.0211-4.7064 1.1968l-0.48544 0.43267-0.0505-0.37105c-0.0278-0.20407-0.0762-1.1788-0.1076-2.1661-0.0493-1.5505-0.0309-2.0097 0.13561-3.3712 0.47514-3.8859 1.1295-5.8813 2.9003-8.8439 0.93573-1.5655 0.90326-1.4425 0.69959-2.6503-0.46285-2.7448-0.62719-6.3346-0.36867-8.0532 0.40496-2.6921 1.3983-4.2261 2.7366-4.2261 1.9493 0 5.303 2.381 8.8495 6.2827 0.64419 0.70871 0.66441 0.7224 1.0671 0.7224 0.26898 0 0.61021-0.0906 0.98984-0.26269 0.31864-0.14448 0.58783-0.26269 0.5982-0.26269 0.0104 0-0.0411 0.20687-0.11442 0.45971-0.19656 0.67813-0.19087 2.8197 0.01 3.5682 0.35499 1.3262 1.0438 2.2295 2.0519 2.6911 0.65682 0.3007 1.4716 0.32694 1.8338 0.0591 0.39472-0.2919 0.80123-0.88122 0.94837-1.3749 0.47462-1.5923 0.28242-4.3479-0.42465-6.088l-0.2116-0.52077 0.49323-0.0519c0.95329-0.10026 3.3313-0.086 3.5001 0.021 0.0951 0.0603 0.0829 0.14167-0.0642 0.43015-0.0998 0.19568-0.28694 0.70342-0.41579 1.1283-0.21118 0.69634-0.23459 0.91068-0.2374 2.1735-3e-3 1.2894 0.0155 1.4572 0.23104 2.1057 0.40723 1.2255 1.0796 2.0111 1.9584 2.2882 0.61903 0.19512 1.0443 0.0698 1.5797-0.46568 0.47585-0.47585 1.066-1.6753 1.351-2.7461 0.17171-0.64501 0.19846-0.96326 0.20052-2.3859 2e-3 -1.6098 6e-3 -1.6405 0.18022-1.5848 0.67195 0.2149 1.0388 0.27244 1.2855 0.20167 0.17277-0.0496 0.80684-0.60403 1.7699-1.5477 2.6653-2.6118 4.7801-4.1314 6.4791-4.6555 0.75787-0.23379 1.3258-0.23813 1.6951-0.0129 0.91955 0.56067 1.7653 2.7289 2.2281 5.7123 0.16029 1.0333 0.19515 1.6342 0.1996 3.441 5e-3 2.0545-7e-3 2.2289-0.19796 2.8365-0.24326 0.77444-0.22421 0.87787 0.33214 1.8039 1.0148 1.6889 2.0844 4.1038 2.6584 6.0017 0.62581 2.0692 0.90994 3.7898 0.99265 6.011l0.056 1.5045-0.5998-0.21772c-1.2757-0.46305-2.0071-0.5892-3.4549-0.59588-1.6459-8e-3 -2.1797 0.1264-2.7746 0.69637-0.3709 0.35538-0.3777 0.37236-0.3777 0.94279 0 1.4895 0.97295 2.5798 2.802 3.14 0.85503 0.26187 2.1995 0.26361 3.0957 4e-3l0.60015-0.17384-0.0498 0.24912c-0.13815 0.69075-1.433 3.6728-1.5948 3.6728-0.0267 0-0.14713-0.11705-0.26751-0.26011-0.34052-0.40469-1.4385-1.0963-2.2171-1.3966-1.8164-0.70046-3.7505-0.71668-4.5568-0.0382-0.40408 0.34001-0.52638 0.64744-0.52638 1.3231 0 0.46325 0.0494 0.69888 0.21656 1.0332 0.65054 1.3011 2.4858 2.6207 3.9994 2.8757l0.62519 0.10534-0.77875 0.68712c-0.96601 0.85234-2.2066 1.7856-3.2102 2.4148-0.85553 0.53642-1.0824 0.85002-0.99683 1.3776 0.0867 0.53407 0.64077 0.9531 1.1509 0.87033 0.81027-0.13149 4.0884-2.5769 5.5614-4.1487 2.4305-2.5935 4.0243-5.4813 4.8209-8.7351 0.42225-1.7247 0.55114-2.8663 0.54924-4.8649-4e-3 -3.9878-0.91739-7.6854-2.8694-11.613-0.35592-0.7162-0.62097-1.329-0.58902-1.3618 0.1857-0.1904 4.3921-0.85557 6.1657-0.975l0.59105-0.0398-3.5e-4 0.62476c-5.2e-4 0.90829-0.20173 2.019-0.79529 4.39-0.8394 3.3529-0.90187 5.059-0.22648 6.1853 0.37614 0.62721 0.91254 0.95551 1.6591 1.0154 0.61821 0.0496 1.1034-0.10934 1.683-0.55139 0.9111-0.69494 1.943-2.6757 2.5287-4.8543 0.36616-1.3618 0.84765-4.1704 0.90446-5.2757 0.0291-0.56588 0.0661-1.0289 0.0822-1.0289s0.41402 0.12185 0.88416 0.27078c0.75441 0.23897 2.26 0.917 2.528 1.1384 0.0701 0.058 0.0422 0.36526-0.1006 1.1086-0.52334 2.7236-0.92746 4.2619-2.0048 7.6315-0.92837 2.9037-0.87249 5.1631 0.14566 5.8893 0.24327 0.1735 0.39313 0.20439 0.99177 0.20439 0.64097 0 0.76695-0.0305 1.3832-0.33515 0.8141-0.40244 1.6526-1.1572 2.1922-1.9733 0.78165-1.1822 2.3345-5.1351 2.6718-6.8015l0.15044-0.74306 0.44357 0.63587c0.4857 0.69627 1.3255 2.0601 1.6008 2.5999l0.17461 0.34227-0.48538 1.43c-0.81088 2.389-2.1073 5.2889-3.1117 6.9604-0.55518 0.92394-0.68984 1.322-0.68984 2.0392 0 1.0783 0.4386 1.8256 1.3073 2.2275 0.32703 0.15129 0.56818 0.18512 1.3196 0.18512 0.87029 0 0.94905-0.0155 1.4739-0.28948 0.94273-0.49217 1.6061-1.2919 2.3-2.7727 0.18216-0.38873 0.40954-0.98177 0.50529-1.3179 0.0958-0.3361 0.17719-0.57169 0.18097-0.52353 4e-3 0.0482 0.0479 0.34056 0.0981 0.64978 0.35743 2.2029 0.22696 5.6108-0.31846 8.3187-0.30399 1.5092-1.2612 4.4439-1.4243 4.367-0.0315-0.0149-0.29369-0.14929-0.58265-0.29873-1.9186-0.99223-4.8589-1.1951-8.0297-0.55394-3.0199 0.6106-5.822 1.7774-9.3228 3.8821-4.8528 2.9175-8.5129 6.1616-9.8868 8.7632l-0.34321 0.64989-1.1446 0.2704c-1.6757 0.39586-2.69 0.58967-3.633 0.69418-1.1977 0.13274-4.0722 0.18082-5.8677 0.0981zm-7.1607-21.89c2.9984-0.5175 5.403-2.0464 6.3718-4.0514 0.5444-1.1266 0.64146-2.2437 0.30158-3.4708-0.0518-0.18693-0.037-0.20038 0.15251-0.13877 0.42955 0.13963 1.5029 0.066 2.0487-0.14058 0.72004-0.27252 1.5169-1.0652 1.7808-1.7717 0.25354-0.67855 0.25687-1.6266 8e-3 -2.2917-0.37135-0.99253-1.4179-1.8212-2.4823-1.9657-1.8986-0.25765-3.5221 0.98161-3.7141 2.8351l-0.0582 0.56196-0.61295-0.38779c-1.0597-0.67043-2.5952-1.2034-4.1323-1.4342-0.89925-0.13503-2.9995-0.11615-3.9236 0.0353-1.4085 0.2308-2.8262 0.71197-3.7225 1.2635l-0.41384 0.25463-0.0474-0.52247c-0.093-1.0261-0.80415-2.0157-1.7935-2.4961-0.44539-0.21624-0.60187-0.24425-1.3781-0.24666-0.77073-2e-3 -0.9358 0.0255-1.3779 0.23266-0.61512 0.28829-1.272 0.93045-1.5505 1.5159-0.24375 0.51229-0.3422 1.634-0.19212 2.1891 0.15311 0.56632 0.63617 1.2826 1.1065 1.6408 0.57078 0.43461 1.4422 0.70524 2.1434 0.66568 0.29021-0.0164 0.52759-0.0249 0.5275-0.0189s-0.0555 0.1678-0.12319 0.35959c-0.80172 2.2723 0.7068 4.9649 3.5818 6.3932 2.1309 1.0586 4.9465 1.43 7.4999 0.98934zm-16.673-26.32c0.95873-0.38745 1.3928-0.68423 1.729-1.1823 0.23028-0.34105 0.26754-0.48212 0.2946-1.1153 0.0275-0.64465 5e-3 -0.77801-0.20423-1.2056-0.36527-0.74661-1.4779-1.7988-2.3689-2.2404-0.39758-0.197-0.9033-0.37853-1.1238-0.40339-0.36721-0.0414-0.42612-0.02-0.69962 0.25346-0.45008 0.45008-0.62103 1.3047-0.61901 3.0948 1e-3 1.2647 0.0208 1.4436 0.19926 1.8388 0.24684 0.5467 0.56828 0.89446 1.0201 1.1037 0.51089 0.23653 0.91178 0.20399 1.7726-0.14387zm31.589-0.71945c0.37785-0.18554 0.73233-0.53792 0.94646-0.94085 0.16331-0.30733 0.19003-0.52734 0.21798-1.7951 0.057-2.586-0.37932-3.7322-1.3514-3.5499-1.1938 0.22397-2.863 1.5297-3.4657 2.7111-0.26777 0.52489-0.26531 1.5455 5e-3 2.0647 0.29585 0.56832 0.48301 0.73947 1.1914 1.0895 1.2964 0.64057 1.8241 0.73091 2.4562 0.42051z" fill="#f95" stroke="#000" stroke-linecap="round" stroke-width=".0087564"/>
  </g>
  <path transform="matrix(.26458 0 0 .26458 .57193 .90582)" d="m66.923 189.41c-4.9821-0.8375-9.1063-4.0874-12.381-9.7564l-0.74644-1.2923 0.55934-0.87166c0.60432-0.94175 2.2007-2.5006 3.4199-3.3394 3.4821-2.3958 9.0156-3.9371 15.699-4.3728 1.0224-0.0667 1.9896-0.18838 2.1493-0.27048 0.24277-0.12481 0.3105-0.0122 0.41329 0.6875 0.06761 0.46023 0.59881 2.865 1.1804 5.3439 1.2596 5.3686 1.626 7.6195 1.5218 9.3477-0.09106 1.5098-0.25891 1.7518-1.8079 2.6065-2.3243 1.2826-5.4608 2.0605-8.1276 2.0158-0.79059-0.0133-1.6366-0.0576-1.8801-0.0985z" fill="#a0a0a0"/>
  <g filter="url(#filter23527)">
   <path transform="matrix(-.73674 0 0 .73674 125.46 -14.006)" d="m124.57 61.55c-8.7534-5.5215-11.467-17.635-3.2249-27.974 0 0-1.9397-9.9386 1.7969-11.984 3.7366-2.0455 9.5796 5.3763 9.5796 5.3763s4.7006-1.1031 7.4733-1.1674c2.7727-0.06426 7.0925 1.6921 7.0925 1.6921s5.6407-6.8435 9.2226-5.7618c3.5819 1.0817 2.5347 11.963 2.5347 11.963s10.436 16.161-6.1762 28.199" fill="none" stroke="#000" stroke-linecap="round" stroke-linejoin="round" stroke-width="2"/>
   <g fill="none" stroke="#000" stroke-linecap="round" stroke-linejoin="round" stroke-width="2">
    <path transform="matrix(-.73674 0 0 .73674 125.46 -14.006)" d="m122.07 59.729s-2.2015 22.329 6.5332 27.256c8.7347 4.9264 9.9604 0.47122 9.9604 0.47122s-2.1777-4.9479-1.0472-8.9961"/>
    <path transform="matrix(-.73674 0 0 .73674 125.46 -14.006)" d="m141.14 78.814c1.071 1.7243-2.2253 7.8074-0.3689 9.2746s10.21 4.3803 12.376-10.442"/>
    <path transform="matrix(-.73674 0 0 .73674 125.46 -14.006)" d="m158.79 56.216s7.6399 5.2799 7.3305 15.433c-0.30941 10.153-4.2959 10.228-8.8299 10.57-4.5339 0.34271-8.0802 2.2169-3.5462 7.3254 4.5339 5.1085 21.432-3.4807 11.924-13.483"/>
   </g>
   <g stroke="#000" stroke-linecap="round" stroke-linejoin="round" stroke-width="2">
    <ellipse transform="matrix(-.73674 0 0 .73674 125.46 -14.006)" cx="130.72" cy="44.152" rx="1.8921" ry="1.8581" style="paint-order:stroke fill markers"/>
    <ellipse transform="matrix(-.73674 0 0 .73674 125.46 -14.006)" cx="147.97" cy="44.869" rx="1.8921" ry="1.8581" style="paint-order:stroke fill markers"/>
    <path transform="matrix(-.73674 0 0 .73674 125.46 -14.006)" d="m134.63 49.405s1.3685 0.82464 2.4514-0.03213c1.0829-0.85677 1.666-2.2919 1.666-2.2919s0.8925 1.8206 2.2967 2.4525c1.4042 0.63187 1.9516 0.11781 1.9516 0.11781" fill="none"/>
   </g>
   <path transform="matrix(.26458 0 0 .26458 .57193 .90582)" d="m71.349 38.606c-2.8057-1.0716-5.1616-4.1097-5.888-7.5931-0.15238-0.7307-0.27705-3.0526-0.27705-5.1598v-3.8313l3.3219-1.0467c2.9674-0.93501 8.3552-2.2889 9.1324-2.2949 0.4377-0.0034 1.5743 2.6303 2.0006 4.6358 0.27043 1.2722 0.35083 2.9314 0.29226 6.0313l-0.08079 4.2764-0.95789 1.9368c-1.2642 2.5562-2.204 3.2156-4.753 3.335-1.1888 0.05568-2.1469-0.04372-2.7905-0.28953z" fill="#6c6753" stroke="#6c6753" stroke-width=".24945"/>
   <g stroke-width=".25071">
    <path transform="matrix(.26458 0 0 .26458 .57193 .90582)" d="m23.573 76.904c-0.34753-2.2165-0.65193-9.9865-0.42644-10.885 0.11329-0.45139 0.59574-0.78857 1.98-1.3838 3.7798-1.6254 6.477-1.599 8.4416 0.08266 2.6792 2.2933 4.1189 7.5009 2.7925 10.101-0.65764 1.2891-2.3111 2.6665-3.7908 3.158-1.0505 0.34892-5.6068 0.84695-7.9079 0.86437l-0.78432 0.0059z" fill="#918a6f" stroke="#918a6f"/>
    <path transform="matrix(.26458 0 0 .26458 .57193 .90582)" d="m31.542 96.938c-1.9868-2.9327-3.6327-5.9584-4.7949-8.8149-1.4135-3.474-1.5335-3.077 1.2047-3.985 6.2466-2.0713 10.338-1.2475 12.32 2.4808 0.72993 1.3733 0.65972 5.0234-0.12501 6.4995-0.78658 1.4796-2.7452 3.3982-5.0655 4.9621l-1.8982 1.2794z" fill="#484537" stroke="#484537"/>
    <path transform="matrix(.26458 0 0 .26458 .57193 .90582)" d="m135.72 81.486c-6.5588-1.1904-9.9542-4.4841-9.5499-9.264 0.27914-3.3006 2.1868-6.3106 4.6792-7.3828 2.6006-1.1188 5.1458-0.96743 10.46 0.62191 2.7578 0.8248 3.0636 0.97454 3.2084 1.5709 0.35349 1.4563 0.4495 9.7708 0.14183 12.282l-0.31137 2.5418-3.419-0.02263c-1.8805-0.01244-4.2245-0.16882-5.209-0.3475z" fill="#aca793" stroke="#aca793"/>
    <path transform="matrix(.26458 0 0 .26458 .57193 .90582)" d="m130.32 103.04c-2.7662-1.8809-5.6137-4.7455-6.4647-6.5035-0.32266-0.66652-0.63943-1.7611-0.70394-2.4325-0.24241-2.5228 2.2656-5.9456 5.4629-7.4554 1.1829-0.55857 1.7174-0.65113 3.7606-0.65113 3.4959 0 5.484 0.9556 7.9784 3.835l1.2805 1.4781-1.3495 2.7337c-0.74225 1.5035-2.0076 3.7145-2.8118 4.9133-1.5858 2.3637-4.2615 5.7177-4.5613 5.7177-0.10241 0-1.2684-0.73585-2.591-1.6352z" fill="#918a6f" stroke="#918a6f"/>
    <path transform="matrix(.26458 0 0 .26458 .57193 .90582)" d="m88.542 38.834c-2.4137-1.2028-3.5472-3.4739-3.7411-7.4953-0.13243-2.7472 0.1037-4.6872 1.1366-9.3382 0.80238-3.6129 0.245-3.3601 5.4454-2.4699 6.7762 1.16 8.1083 1.4662 7.968 1.8318-0.07182 0.18716 0.01081 1.4366 0.18363 2.7766 0.8605 6.6719 0.03729 11.091-2.5302 13.583-1.2831 1.2452-2.8267 1.765-5.2408 1.765-1.5569 0-2.1549-0.12115-3.2215-0.65269z" fill="#aca793" stroke="#aca793"/>
   </g>
   <g fill="#e3e2db" stroke="#e3e2db" stroke-width=".17705">
    <path transform="matrix(.26458 0 0 .26458 .57193 .90582)" d="m92.123 188.99c-0.72747-0.23058-1.3696-0.59784-1.9259-1.1015l-0.83454-0.75556 0.8036-2.4738c1.4522-4.4705 2.3325-8.7276 2.5617-12.388 0.06706-1.0711 0.14974-1.7682 0.18373-1.5492 0.07944 0.51212 0.14548 0.5035 1.0994-0.14352 2.5981-1.7621 6.3469-3.1322 9.0804-3.3184 2.7273-0.18587 6.3341 0.0336 8.19 0.49841 3.3531 0.83976 7.4243 2.9005 9.7148 4.9172l0.6605 0.58158-0.4831 0.83479c-1.7989 3.1085-4.5224 6.3177-6.7721 7.9799-3.537 2.6133-11.119 5.9757-15.613 6.9243-2.2534 0.47556-5.1542 0.47298-6.6652-6e-3z"/>
    <path transform="matrix(.26458 0 0 .26458 .57193 .90582)" d="m65.576 189.01c-4.3751-1.1841-8.1609-4.5473-11.318-10.055-0.40212-0.70143-0.26966-1.0034 1.1075-2.5253 3.3703-3.7243 8.9983-5.7952 17.844-6.566 1.2659-0.1103 2.372-0.21284 2.4581-0.22786 0.08608-0.015 0.39282 1.0881 0.68165 2.4513 0.28883 1.3632 0.59734 2.5054 0.68557 2.538 0.08823 0.0327 0.12081 0.12347 0.0724 0.2018-0.04841 0.0783 0.24292 1.645 0.6474 3.4815 0.636 2.8877 0.7375 3.6416 0.75084 5.5767 0.01823 2.6454 0.03608 2.6127-2.0032 3.6736-2.3264 1.2103-4.1238 1.647-7.0993 1.7249-2.1282 0.0557-2.7825 9e-3 -3.8266-0.27368z"/>
    <path transform="matrix(.26458 0 0 .26458 .57193 .90582)" d="m29.611 194.14c-1.819-0.28574-4.514-0.96156-4.7414-1.189-0.31088-0.31088-0.76246-2.3616-1.0122-4.5968-0.60587-5.4218 1.4091-10.319 5.253-12.767l0.69467-0.44236 2.7577 0.20573c9.4271 0.70326 14.347 2.9274 14.353 6.4889 0.0053 2.9375-4.6525 9.6724-7.7005 11.134-1.885 0.90406-3.2924 1.1933-6.1081 1.2554-1.4119 0.0311-2.9854-9e-3 -3.4965-0.0894z"/>
    <path transform="matrix(.26458 0 0 .26458 .57193 .90582)" d="m8.4848 181.35c-0.97648-1.5219-2.1112-3.9851-2.1112-4.583 0-0.44682 1.5468-2.9378 2.7525-4.4325 1.4091-1.747 3.4257-2.9821 4.8739-2.9853 0.26345-5.7e-4 0.63727 0.19296 0.88523 0.4583 0.42475 0.45451 3.2608 2.4272 3.728 2.5931 0.31636 0.11234 0.2918 0.12959-1.2627 0.88688-3.2759 1.5958-5.8873 4.4787-7.3555 8.12l-0.56856 1.4101z"/>
   </g>
   <path transform="matrix(.26458 0 0 .26458 .57193 .90582)" d="m23.466 192.62c-5.2392-1.9072-9.9681-5.0695-13.241-8.8543l-0.71681-0.82904 0.57831-1.3611c1.0631-2.5022 2.5309-4.626 4.1748-6.0409 1.1213-0.96511 1.7061-1.3551 3.1857-2.1245 0.68216-0.35473 1.3052-0.69884 1.3846-0.76471 0.09629-0.0799 0.5237 0.0438 1.2846 0.37184 1.2143 0.5235 2.7565 0.99791 4.288 1.3191 1.2573 0.26366 4.1956 0.67984 4.817 0.68227l0.49927 2e-3 -0.87473 0.58398c-3.3241 2.2192-5.1925 6.1409-5.1925 10.899 0 2.1876 0.58456 5.8491 1.017 6.3701 0.19661 0.2369 0.07001 0.21023-1.2047-0.25379z" fill="#918a6f" stroke="#918a6f" stroke-width=".12515"/>
   <path transform="matrix(.26458 0 0 .26458 .57193 .90582)" d="m6.0282 175.87c-0.76721-3.4994-0.39253-6.8324 1.1665-10.376 0.57304-1.3027 2.0506-3.8766 2.2644-3.9445 0.063257-0.0201 0.30614 0.42727 0.53974 0.99416 0.80061 1.9429 2.0979 4.1193 3.2518 5.4552 0.31826 0.36849 0.67525 0.7958 0.7933 0.94958 0.21329 0.27785 0.21158 0.27972-0.27366 0.29873-1.2143 0.0476-2.8424 0.9881-4.2189 2.4372-0.87698 0.92323-2.4163 3.1032-2.9883 4.232-0.17033 0.33614-0.32794 0.61115-0.35025 0.61115-0.022304 0-0.10537-0.29567-0.1846-0.65704z" fill="#484537" stroke="#484537" stroke-width=".12515"/>
   <path transform="matrix(.26458 0 0 .26458 .57193 .90582)" d="m84.265 181.08c-0.09683-0.92188-0.77886-4.2761-1.5156-7.4539-1.178-5.0809-1.3168-6.0216-1.1511-7.8 0.35336-3.7921 0.33613-3.9167-0.66519-4.8114-1.193-1.0659-2.5597-1.0987-3.7582-0.0903-1.2328 1.0373-1.6244 2.4315-1.5914 5.6651l0.02843 2.7857-2.4892 0.18712c-5.6585 0.42538-9.5584 1.325-13.127 3.0284-2.2028 1.0513-4.5922 2.9013-5.5303 4.2819l-0.68563 1.009-0.57491-1.1269c-1.5224-2.9842-3.2457-9.0191-4.3802-15.339-0.46598-2.5959-0.67864-3.2065-1.3064-3.7507-1.8415-1.5963-4.762-0.238-4.762 2.2148 0 1.2239 1.1379 7.3872 1.8688 10.122 0.23158 0.8665 0.37341 1.6231 0.31517 1.6813-0.05824 0.0582-0.99051-0.16735-2.0717-0.5013-2.26-0.69803-6.0992-1.3338-9.6455-1.5974-4.4336-0.32948-7.3326-0.77871-9.5843-1.4852-5.8879-1.8473-8.898-6.5477-10.526-16.437-0.72151-4.3821-0.74817-14.759-0.04748-18.48 1.8978-10.078 6.3779-18.667 13.561-26l2.83-2.8889 1.9315 2.1667c3.6122 4.0519 9.5031 9.3696 12.925 11.668 1.5022 1.0087 2.7932 0.9895 3.9667-0.0591 0.74569-0.66627 0.91062-1.0316 0.91062-2.0174 0-0.66205-0.17403-1.4134-0.38673-1.6697-0.2127-0.25629-1.9316-1.706-3.8197-3.2216-3.7479-3.0084-8.3231-7.4602-10.298-10.02-0.69058-0.89513-1.2047-1.6663-1.1426-1.7137 0.06216-0.04742 1.0402-0.69393 2.1735-1.4367 4.3503-2.8513 6.093-6.0833 5.3111-9.85-1.0984-5.2909-6.3468-6.8563-13.704-4.0872l-1.871 0.70422-0.43008-1.498c-0.23655-0.82392-0.51542-1.888-0.61971-2.3647-0.1043-0.47666-0.24639-1.0787-0.31576-1.3378-0.11041-0.4124 0.33406-0.48881 3.5657-0.613 4.2131-0.1619 5.765-0.59692 7.5354-2.1124 1.5653-1.3398 2.2156-3.0693 1.9847-5.2783-0.36765-3.5175-2.2074-6.6633-4.6153-7.8917-1.7192-0.87708-4.6522-0.64979-7.2397 0.56101l-1.9178 0.89744v-0.9454c0-1.3544 1.0245-6.802 1.866-9.9218 1.0802-4.0049 2.5976-7.8778 4.7851-12.213l1.9677-3.9-0.16046-7.1383c-0.28468-12.665 1.1058-20.519 4.1367-23.366 1.0018-0.9411 3.0115-1.0413 5.3116-0.26491 4.1528 1.4018 8.1453 4.3486 14.402 10.63 2.7808 2.7916 5.0499 4.8333 5.5223 4.9688 0.54743 0.157 1.2958 0.05953 2.3574-0.30705 0.85547-0.29539 1.5625-0.54131 1.5712-0.5465 0.0087-0.0052-0.03999 1.5544-0.10813 3.4657-0.07453 2.0904 0.01655 4.1912 0.2286 5.2722 0.97126 4.9514 4.3737 8.2752 8.4867 8.2907 2.9426 0.01106 4.5256-1.2398 5.7721-4.5611 0.52829-1.4076 0.61762-2.266 0.62201-5.977 0.0053-4.4769-0.3065-6.2322-1.5732-8.8564l-0.50992-1.0564 1.3019-0.19524c1.5204-0.228 6.6508 0.10333 6.8608 0.44308 0.07897 0.12777-0.18105 1.5097-0.57782 3.0709-2.3563 9.2717-1.3304 15.259 2.9656 17.306 1.5602 0.74347 5.007 0.70945 6.7043-0.06618 3.8075-1.7399 5.4223-6.3929 4.6729-13.465-0.18925-1.786-0.42314-3.5393-0.51976-3.8964-0.17386-0.64242-0.15304-0.64723 2.012-0.46422l2.1877 0.18493 0.95134-0.99039c0.52323-0.54471 1.9156-2.0726 3.0942-3.3953 5.4313-6.0955 12.039-10.704 16.386-11.427 5.7456-0.95586 8.8513 5.947 8.3767 18.619-0.15607 4.1671-0.36948 6.309-1.2089 12.133-0.1697 1.1775-0.0896 1.4361 0.84985 2.7444 6.3302 8.8155 10.005 16.335 11.576 23.69 0.27142 1.2702 0.55097 2.5208 0.62123 2.7791 0.10508 0.38628-0.3735 0.29853-2.697-0.4945-8.3278-2.8424-13.23-1.4409-15.243 4.3582-1.3289 3.8274-0.30085 7.5535 2.6713 9.6818 2.7677 1.9819 7.8015 3.1057 12.537 2.7989 2.18-0.14124 2.5548-0.10022 2.5548 0.27957 0 1.1843-2.2004 8.4819-2.5515 8.4619-0.10611-6e-3 -0.54602-0.52156-0.97757-1.1456-1.0067-1.4558-3.1568-3.0301-4.9789-3.6454-1.7856-0.60298-4.8153-0.60066-6.4729 5e-3 -2.7987 1.0225-5.3493 3.5955-6.1226 6.1763-1.0231 3.4148 1.6381 7.4996 7.2901 11.19 1.1624 0.75895 2.1784 1.4409 2.2578 1.5154 0.23944 0.22462-4.3371 4.3188-6.4633 5.782-3.2306 2.2233-3.6653 2.6756-3.8426 3.9977-0.13683 1.0204-0.0432 1.3155 0.66784 2.1045 1.3253 1.4707 2.4664 1.48 4.6878 0.0384 1.0112-0.65625 1.895-1.1369 1.9638-1.068 0.25908 0.25908 0.1037 19.868-0.18924 23.883-0.95166 13.043-3.1917 23.363-6.8507 31.561-0.40775 0.91361-0.83769 1.6611-0.95543 1.6611-0.11773 0-0.39248-0.21731-0.61054-0.4829-1.19-1.4493-5.9626-3.9223-9.352-4.8458-2.6592-0.72456-7.926-0.89277-10.534-0.33645-2.0784 0.44332-5.2638 1.8056-7.1063 3.039l-0.88509 0.59252-0.33225-3.8221c-0.38138-4.3872-0.96041-6.641-1.8698-7.2779-0.80247-0.56207-2.7909-0.57445-3.5792-0.0223-1.1378 0.79695-1.3664 1.9125-0.85368 4.1666 0.53652 2.3589 0.60843 7.4629 0.14826 10.523-0.37718 2.508-1.6617 7.7644-1.9762 8.087-0.12425 0.12744-0.30513-0.52255-0.40196-1.4444zm-5.6674-96.174c2.2782-0.67544 3.4592-1.3468 5.2531-2.9864l1.5937-1.4565 1.879 1.8424c2.3156 2.2705 3.9474 2.9188 6.8207 2.71 2.1497-0.15621 4.7536-1.1516 5.3902-2.0605 0.23161-0.33068 0.42111-1.1632 0.42111-1.8501 0-2.3604-2.0725-3.3408-4.7221-2.2337-1.7743 0.74135-2.4707 0.57455-3.9254-0.94022-0.72551-0.75546-1.7461-2.1795-2.2679-3.1646-1.0959-2.0686-2.099-2.9729-3.298-2.9729-1.2762 0-1.8928 0.45492-3.0332 2.2376-2.1573 3.3724-4.5701 5.3293-6.5476 5.3106-0.49807-0.0047-1.4346-0.09141-2.0811-0.19266-1.0038-0.15719-1.3097-0.07114-2.0944 0.58918-0.79452 0.66855-0.91896 0.95855-0.91896 2.1417 0 1.0468 0.15323 1.5124 0.65206 1.981 1.5952 1.4986 4.0773 1.8757 6.8788 1.0452zm-15.87-8.6971c1.1-0.35177 1.9772-0.92044 3.0224-1.9592 1.8569-1.8456 2.5651-3.7493 2.3574-6.3367-0.65347-8.1408-11.829-10.204-15.427-2.8487-2.1466 4.3874-0.03677 9.4988 4.5788 11.093 1.9301 0.66668 3.499 0.68149 5.4687 0.0516zm47.891-1.9793c0.97189-0.28862 2.0014-0.89061 2.8406-1.6611 3.5984-3.3034 3.6082-8.6379 0.022-11.93-4.3348-3.9792-11.696-2.0022-13.254 3.5601-0.45298 1.6164-0.22829 4.5751 0.45512 5.9933 1.7041 3.5363 5.8929 5.2383 9.9366 4.0375z" fill="#c8c4b7" stroke="#c8c4b7" stroke-width=".28889"/>
   <path transform="translate(.57193 .90582)" d="m9.8772 6.1137c0.18606-2.5144 0.49614-2.7655 2.4032-1.4818 1.907 1.2837 1.2496 2.266 0.02173 2.7935-1.2279 0.52744-2.4745 1.1553-2.4249-1.3116z" fill="#fefefe" stroke="#fff" stroke-width=".737"/>
   <path transform="translate(.57193 .90582)" d="m33.723 5.4481c-0.18606-2.5144-0.49614-2.7655-2.4032-1.4818-1.907 1.2837-1.2496 2.266-0.02173 2.7935 1.2279 0.52744 2.4745 1.1553 2.4249-1.3116z" fill="#fefefe" stroke="#fff" stroke-width=".737"/>
  </g>
 </g>
</svg>
